<?xml version="1.0" encoding="utf-8"?>
<svg version="1.1" x="0px" y="0px" viewBox="0 0 1000 1000" enable-background="new 0 0 1000 1000" xmlns="http://www.w3.org/2000/svg">
  <g style="" transform="matrix(0.067657, 0, 0, 0.067657, 74.890274, 1.239627)">
    <path d="M833.9,770.1c-7.5,2.2-15,3.8-22.4,5.1c-1.8,0.3-3.7,0.6-5.5,0.9c-7.3,1.1-14.6,1.9-21.8,2.1c-0.1,0-0.1,0-0.2,0c-7.5,0.2-14.8,0-22-0.6c-1.5-0.1-3-0.3-4.5-0.4c-7.1-0.7-14.1-1.8-20.9-3.3c-26.9,39.1-62.2,94.6-109.1,135.7c-11.4,0-294.5,0-307.7,0c-163.9-84.8-190.7-315.7-195.1-386.1c0-0.6-0.2-1.2-0.2-1.9v-1.1c-0.7-12.5-0.7-19.7-0.7-19.7h0.7c0-28.6,23.2-59.7,51.8-59.7h591.2c25.4,0,46.5,26.2,50.9,50.4c0,0,0,0,0,0c8,0.3,15.8,1.1,23.6,2.4c0.5,0.1,1.1,0.2,1.6,0.3c15,2.6,29.2,7,42.3,13.1c0.8,0.4,1.7,0.8,2.5,1.2c6.2,3,12.2,6.3,17.9,10.1c0.1,0.1,0.2,0.1,0.3,0.2c5.6,3.7,10.8,8,15.7,12.4c1,0.9,1.9,1.8,2.8,2.7c4.5,4.4,8.8,9,12.7,14c0.2,0.2,0.3,0.3,0.5,0.6c3.9,5.1,7.2,10.5,10.2,16.2c0.7,1.3,1.4,2.7,2.1,4.1c2.8,5.8,5.3,11.8,7.2,18.1C979.6,661.7,924.1,743.7,833.9,770.1z M288.3,500.9h-86.6c0,0-11.2,271.1,153.7,357.7C226.9,607.1,288.3,500.9,288.3,500.9z M894.9,605.4c-9.4-32.3-40-53.4-76.5-57.7c-2.1,41.5-14.2,105.6-52.4,173.7c2.9,0.5,5.7,1,8.7,1.2c1.2,0.1,2.4,0.3,3.7,0.4c5.6,0.2,11.4,0,17.1-0.6c1.6-0.2,3.2-0.4,4.8-0.6c6.1-0.8,12.2-2,18.3-3.7C874.3,701.8,908.4,651.4,894.9,605.4z M522.1,410.1c110.6-148.7,0-185.8-25.9-211.7C470.2,172.5,446,30.7,572.2,10C430.4,155.2,796.9,223.4,522.1,410.1z M389.2,410.1c90.6-121.8,0-150.7-21.2-172c-21.2-21.2-41-137.3,62.3-154.3C314.1,202.8,614.3,257.2,389.2,410.1z M824.6,990c-57,0-655.2,0-726,0C27.7,990,38,931.7,38,931.7h840.1C878.2,931.7,881.6,990,824.6,990z"/>
  </g>
  <g style="" transform="matrix(0.067657, 0, 0, 0.067657, 155.23674, 1.239627)">
    <path d="M833.9,770.1c-7.5,2.2-15,3.8-22.4,5.1c-1.8,0.3-3.7,0.6-5.5,0.9c-7.3,1.1-14.6,1.9-21.8,2.1c-0.1,0-0.1,0-0.2,0c-7.5,0.2-14.8,0-22-0.6c-1.5-0.1-3-0.3-4.5-0.4c-7.1-0.7-14.1-1.8-20.9-3.3c-26.9,39.1-62.2,94.6-109.1,135.7c-11.4,0-294.5,0-307.7,0c-163.9-84.8-190.7-315.7-195.1-386.1c0-0.6-0.2-1.2-0.2-1.9v-1.1c-0.7-12.5-0.7-19.7-0.7-19.7h0.7c0-28.6,23.2-59.7,51.8-59.7h591.2c25.4,0,46.5,26.2,50.9,50.4c0,0,0,0,0,0c8,0.3,15.8,1.1,23.6,2.4c0.5,0.1,1.1,0.2,1.6,0.3c15,2.6,29.2,7,42.3,13.1c0.8,0.4,1.7,0.8,2.5,1.2c6.2,3,12.2,6.3,17.9,10.1c0.1,0.1,0.2,0.1,0.3,0.2c5.6,3.7,10.8,8,15.7,12.4c1,0.9,1.9,1.8,2.8,2.7c4.5,4.4,8.8,9,12.7,14c0.2,0.2,0.3,0.3,0.5,0.6c3.9,5.1,7.2,10.5,10.2,16.2c0.7,1.3,1.4,2.7,2.1,4.1c2.8,5.8,5.3,11.8,7.2,18.1C979.6,661.7,924.1,743.7,833.9,770.1z M288.3,500.9h-86.6c0,0-11.2,271.1,153.7,357.7C226.9,607.1,288.3,500.9,288.3,500.9z M894.9,605.4c-9.4-32.3-40-53.4-76.5-57.7c-2.1,41.5-14.2,105.6-52.4,173.7c2.9,0.5,5.7,1,8.7,1.2c1.2,0.1,2.4,0.3,3.7,0.4c5.6,0.2,11.4,0,17.1-0.6c1.6-0.2,3.2-0.4,4.8-0.6c6.1-0.8,12.2-2,18.3-3.7C874.3,701.8,908.4,651.4,894.9,605.4z M522.1,410.1c110.6-148.7,0-185.8-25.9-211.7C470.2,172.5,446,30.7,572.2,10C430.4,155.2,796.9,223.4,522.1,410.1z M389.2,410.1c90.6-121.8,0-150.7-21.2-172c-21.2-21.2-41-137.3,62.3-154.3C314.1,202.8,614.3,257.2,389.2,410.1z M824.6,990c-57,0-655.2,0-726,0C27.7,990,38,931.7,38,931.7h840.1C878.2,931.7,881.6,990,824.6,990z"/>
  </g>
  <g style="" transform="matrix(0.067657, 0, 0, 0.067657, 232.914154, 1.239627)">
    <path d="M833.9,770.1c-7.5,2.2-15,3.8-22.4,5.1c-1.8,0.3-3.7,0.6-5.5,0.9c-7.3,1.1-14.6,1.9-21.8,2.1c-0.1,0-0.1,0-0.2,0c-7.5,0.2-14.8,0-22-0.6c-1.5-0.1-3-0.3-4.5-0.4c-7.1-0.7-14.1-1.8-20.9-3.3c-26.9,39.1-62.2,94.6-109.1,135.7c-11.4,0-294.5,0-307.7,0c-163.9-84.8-190.7-315.7-195.1-386.1c0-0.6-0.2-1.2-0.2-1.9v-1.1c-0.7-12.5-0.7-19.7-0.7-19.7h0.7c0-28.6,23.2-59.7,51.8-59.7h591.2c25.4,0,46.5,26.2,50.9,50.4c0,0,0,0,0,0c8,0.3,15.8,1.1,23.6,2.4c0.5,0.1,1.1,0.2,1.6,0.3c15,2.6,29.2,7,42.3,13.1c0.8,0.4,1.7,0.8,2.5,1.2c6.2,3,12.2,6.3,17.9,10.1c0.1,0.1,0.2,0.1,0.3,0.2c5.6,3.7,10.8,8,15.7,12.4c1,0.9,1.9,1.8,2.8,2.7c4.5,4.4,8.8,9,12.7,14c0.2,0.2,0.3,0.3,0.5,0.6c3.9,5.1,7.2,10.5,10.2,16.2c0.7,1.3,1.4,2.7,2.1,4.1c2.8,5.8,5.3,11.8,7.2,18.1C979.6,661.7,924.1,743.7,833.9,770.1z M288.3,500.9h-86.6c0,0-11.2,271.1,153.7,357.7C226.9,607.1,288.3,500.9,288.3,500.9z M894.9,605.4c-9.4-32.3-40-53.4-76.5-57.7c-2.1,41.5-14.2,105.6-52.4,173.7c2.9,0.5,5.7,1,8.7,1.2c1.2,0.1,2.4,0.3,3.7,0.4c5.6,0.2,11.4,0,17.1-0.6c1.6-0.2,3.2-0.4,4.8-0.6c6.1-0.8,12.2-2,18.3-3.7C874.3,701.8,908.4,651.4,894.9,605.4z M522.1,410.1c110.6-148.7,0-185.8-25.9-211.7C470.2,172.5,446,30.7,572.2,10C430.4,155.2,796.9,223.4,522.1,410.1z M389.2,410.1c90.6-121.8,0-150.7-21.2-172c-21.2-21.2-41-137.3,62.3-154.3C314.1,202.8,614.3,257.2,389.2,410.1z M824.6,990c-57,0-655.2,0-726,0C27.7,990,38,931.7,38,931.7h840.1C878.2,931.7,881.6,990,824.6,990z"/>
  </g>
  <g style="" transform="matrix(0.067657, 0, 0, 0.067657, 311.781067, 1.239627)">
    <path d="M 855.768 770.1 C 848.268 772.3 840.768 773.9 833.368 775.2 C 831.568 775.5 829.668 775.8 827.868 776.1 C 820.568 777.2 813.268 778 806.068 778.2 C 805.968 778.2 805.968 778.2 805.868 778.2 C 798.368 778.4 791.068 778.2 783.868 777.6 C 782.368 777.5 780.868 777.3 779.368 777.2 C 772.268 776.5 765.268 775.4 758.468 773.9 C 731.568 813 696.268 868.5 649.368 909.6 C 637.968 909.6 354.868 909.6 341.668 909.6 C 177.768 824.8 150.968 593.9 146.568 523.5 C 146.568 522.9 146.368 522.3 146.368 521.6 L 146.368 520.5 C 145.668 508 145.668 500.8 145.668 500.8 L 146.368 500.8 C 146.368 472.2 169.568 441.1 198.168 441.1 L 789.368 441.1 C 814.768 441.1 835.868 467.3 840.268 491.5 C 840.268 491.5 840.268 491.5 840.268 491.5 C 848.268 491.8 856.068 492.6 863.868 493.9 C 864.368 494 864.968 494.1 865.468 494.2 C 880.468 496.8 894.668 501.2 907.768 507.3 C 908.568 507.7 909.468 508.1 910.268 508.5 C 916.468 511.5 922.468 514.8 928.168 518.6 C 928.268 518.7 928.368 518.7 928.468 518.8 C 934.068 522.5 939.268 526.8 944.168 531.2 C 945.168 532.1 946.068 533 946.968 533.9 C 951.468 538.3 955.768 542.9 959.668 547.9 C 959.868 548.1 959.968 548.2 960.168 548.5 C 964.068 553.6 967.368 559 970.368 564.7 C 971.068 566 971.768 567.4 972.468 568.8 C 975.268 574.6 977.768 580.6 979.668 586.9 C 1001.468 661.7 945.968 743.7 855.768 770.1 Z M 310.168 500.9 L 223.568 500.9 C 223.568 500.9 212.368 772 377.268 858.6 C 248.768 607.1 310.168 500.9 310.168 500.9 Z M 916.768 605.4 C 907.368 573.1 876.768 552 840.268 547.7 C 838.168 589.2 826.068 653.3 787.868 721.4 C 790.768 721.9 793.568 722.4 796.568 722.6 C 797.768 722.7 798.968 722.9 800.268 723 C 805.868 723.2 811.668 723 817.368 722.4 C 818.968 722.2 820.568 722 822.168 721.8 C 828.268 721 834.368 719.8 840.468 718.1 C 896.168 701.8 930.268 651.4 916.768 605.4 Z M 543.968 410.1 C 654.568 261.4 543.968 224.3 518.068 198.4 C 492.068 172.5 467.868 30.7 594.068 10 C 452.268 155.2 818.768 223.4 543.968 410.1 Z M 411.068 410.1 C 501.668 288.3 411.068 259.4 389.868 238.1 C 368.668 216.9 348.868 100.8 452.168 83.8 C 335.968 202.8 636.168 257.2 411.068 410.1 Z M 846.468 990 C 789.468 990 191.268 990 120.468 990 C 49.568 990 59.868 931.7 59.868 931.7 L 899.968 931.7 C 900.068 931.7 903.468 990 846.468 990 Z"/>
  </g>
  <g style="" transform="matrix(0.067657, 0, 0, 0.067657, 386.93222, 1.239625)">
    <path d="M833.9,770.1c-7.5,2.2-15,3.8-22.4,5.1c-1.8,0.3-3.7,0.6-5.5,0.9c-7.3,1.1-14.6,1.9-21.8,2.1c-0.1,0-0.1,0-0.2,0c-7.5,0.2-14.8,0-22-0.6c-1.5-0.1-3-0.3-4.5-0.4c-7.1-0.7-14.1-1.8-20.9-3.3c-26.9,39.1-62.2,94.6-109.1,135.7c-11.4,0-294.5,0-307.7,0c-163.9-84.8-190.7-315.7-195.1-386.1c0-0.6-0.2-1.2-0.2-1.9v-1.1c-0.7-12.5-0.7-19.7-0.7-19.7h0.7c0-28.6,23.2-59.7,51.8-59.7h591.2c25.4,0,46.5,26.2,50.9,50.4c0,0,0,0,0,0c8,0.3,15.8,1.1,23.6,2.4c0.5,0.1,1.1,0.2,1.6,0.3c15,2.6,29.2,7,42.3,13.1c0.8,0.4,1.7,0.8,2.5,1.2c6.2,3,12.2,6.3,17.9,10.1c0.1,0.1,0.2,0.1,0.3,0.2c5.6,3.7,10.8,8,15.7,12.4c1,0.9,1.9,1.8,2.8,2.7c4.5,4.4,8.8,9,12.7,14c0.2,0.2,0.3,0.3,0.5,0.6c3.9,5.1,7.2,10.5,10.2,16.2c0.7,1.3,1.4,2.7,2.1,4.1c2.8,5.8,5.3,11.8,7.2,18.1C979.6,661.7,924.1,743.7,833.9,770.1z M288.3,500.9h-86.6c0,0-11.2,271.1,153.7,357.7C226.9,607.1,288.3,500.9,288.3,500.9z M894.9,605.4c-9.4-32.3-40-53.4-76.5-57.7c-2.1,41.5-14.2,105.6-52.4,173.7c2.9,0.5,5.7,1,8.7,1.2c1.2,0.1,2.4,0.3,3.7,0.4c5.6,0.2,11.4,0,17.1-0.6c1.6-0.2,3.2-0.4,4.8-0.6c6.1-0.8,12.2-2,18.3-3.7C874.3,701.8,908.4,651.4,894.9,605.4z M522.1,410.1c110.6-148.7,0-185.8-25.9-211.7C470.2,172.5,446,30.7,572.2,10C430.4,155.2,796.9,223.4,522.1,410.1z M389.2,410.1c90.6-121.8,0-150.7-21.2-172c-21.2-21.2-41-137.3,62.3-154.3C314.1,202.8,614.3,257.2,389.2,410.1z M824.6,990c-57,0-655.2,0-726,0C27.7,990,38,931.7,38,931.7h840.1C878.2,931.7,881.6,990,824.6,990z"/>
  </g>
  <g style="" transform="matrix(0.067657, 0, 0, 0.067657, 467.278687, 1.239625)">
    <path d="M833.9,770.1c-7.5,2.2-15,3.8-22.4,5.1c-1.8,0.3-3.7,0.6-5.5,0.9c-7.3,1.1-14.6,1.9-21.8,2.1c-0.1,0-0.1,0-0.2,0c-7.5,0.2-14.8,0-22-0.6c-1.5-0.1-3-0.3-4.5-0.4c-7.1-0.7-14.1-1.8-20.9-3.3c-26.9,39.1-62.2,94.6-109.1,135.7c-11.4,0-294.5,0-307.7,0c-163.9-84.8-190.7-315.7-195.1-386.1c0-0.6-0.2-1.2-0.2-1.9v-1.1c-0.7-12.5-0.7-19.7-0.7-19.7h0.7c0-28.6,23.2-59.7,51.8-59.7h591.2c25.4,0,46.5,26.2,50.9,50.4c0,0,0,0,0,0c8,0.3,15.8,1.1,23.6,2.4c0.5,0.1,1.1,0.2,1.6,0.3c15,2.6,29.2,7,42.3,13.1c0.8,0.4,1.7,0.8,2.5,1.2c6.2,3,12.2,6.3,17.9,10.1c0.1,0.1,0.2,0.1,0.3,0.2c5.6,3.7,10.8,8,15.7,12.4c1,0.9,1.9,1.8,2.8,2.7c4.5,4.4,8.8,9,12.7,14c0.2,0.2,0.3,0.3,0.5,0.6c3.9,5.1,7.2,10.5,10.2,16.2c0.7,1.3,1.4,2.7,2.1,4.1c2.8,5.8,5.3,11.8,7.2,18.1C979.6,661.7,924.1,743.7,833.9,770.1z M288.3,500.9h-86.6c0,0-11.2,271.1,153.7,357.7C226.9,607.1,288.3,500.9,288.3,500.9z M894.9,605.4c-9.4-32.3-40-53.4-76.5-57.7c-2.1,41.5-14.2,105.6-52.4,173.7c2.9,0.5,5.7,1,8.7,1.2c1.2,0.1,2.4,0.3,3.7,0.4c5.6,0.2,11.4,0,17.1-0.6c1.6-0.2,3.2-0.4,4.8-0.6c6.1-0.8,12.2-2,18.3-3.7C874.3,701.8,908.4,651.4,894.9,605.4z M522.1,410.1c110.6-148.7,0-185.8-25.9-211.7C470.2,172.5,446,30.7,572.2,10C430.4,155.2,796.9,223.4,522.1,410.1z M389.2,410.1c90.6-121.8,0-150.7-21.2-172c-21.2-21.2-41-137.3,62.3-154.3C314.1,202.8,614.3,257.2,389.2,410.1z M824.6,990c-57,0-655.2,0-726,0C27.7,990,38,931.7,38,931.7h840.1C878.2,931.7,881.6,990,824.6,990z"/>
  </g>
  <g style="" transform="matrix(0.067657, 0, 0, 0.067657, 544.956116, 1.239625)">
    <path d="M833.9,770.1c-7.5,2.2-15,3.8-22.4,5.1c-1.8,0.3-3.7,0.6-5.5,0.9c-7.3,1.1-14.6,1.9-21.8,2.1c-0.1,0-0.1,0-0.2,0c-7.5,0.2-14.8,0-22-0.6c-1.5-0.1-3-0.3-4.5-0.4c-7.1-0.7-14.1-1.8-20.9-3.3c-26.9,39.1-62.2,94.6-109.1,135.7c-11.4,0-294.5,0-307.7,0c-163.9-84.8-190.7-315.7-195.1-386.1c0-0.6-0.2-1.2-0.2-1.9v-1.1c-0.7-12.5-0.7-19.7-0.7-19.7h0.7c0-28.6,23.2-59.7,51.8-59.7h591.2c25.4,0,46.5,26.2,50.9,50.4c0,0,0,0,0,0c8,0.3,15.8,1.1,23.6,2.4c0.5,0.1,1.1,0.2,1.6,0.3c15,2.6,29.2,7,42.3,13.1c0.8,0.4,1.7,0.8,2.5,1.2c6.2,3,12.2,6.3,17.9,10.1c0.1,0.1,0.2,0.1,0.3,0.2c5.6,3.7,10.8,8,15.7,12.4c1,0.9,1.9,1.8,2.8,2.7c4.5,4.4,8.8,9,12.7,14c0.2,0.2,0.3,0.3,0.5,0.6c3.9,5.1,7.2,10.5,10.2,16.2c0.7,1.3,1.4,2.7,2.1,4.1c2.8,5.8,5.3,11.8,7.2,18.1C979.6,661.7,924.1,743.7,833.9,770.1z M288.3,500.9h-86.6c0,0-11.2,271.1,153.7,357.7C226.9,607.1,288.3,500.9,288.3,500.9z M894.9,605.4c-9.4-32.3-40-53.4-76.5-57.7c-2.1,41.5-14.2,105.6-52.4,173.7c2.9,0.5,5.7,1,8.7,1.2c1.2,0.1,2.4,0.3,3.7,0.4c5.6,0.2,11.4,0,17.1-0.6c1.6-0.2,3.2-0.4,4.8-0.6c6.1-0.8,12.2-2,18.3-3.7C874.3,701.8,908.4,651.4,894.9,605.4z M522.1,410.1c110.6-148.7,0-185.8-25.9-211.7C470.2,172.5,446,30.7,572.2,10C430.4,155.2,796.9,223.4,522.1,410.1z M389.2,410.1c90.6-121.8,0-150.7-21.2-172c-21.2-21.2-41-137.3,62.3-154.3C314.1,202.8,614.3,257.2,389.2,410.1z M824.6,990c-57,0-655.2,0-726,0C27.7,990,38,931.7,38,931.7h840.1C878.2,931.7,881.6,990,824.6,990z"/>
  </g>
  <g style="" transform="matrix(0.067657, 0, 0, 0.067657, 623.822998, 1.239625)">
    <path d="M 855.768 770.1 C 848.268 772.3 840.768 773.9 833.368 775.2 C 831.568 775.5 829.668 775.8 827.868 776.1 C 820.568 777.2 813.268 778 806.068 778.2 C 805.968 778.2 805.968 778.2 805.868 778.2 C 798.368 778.4 791.068 778.2 783.868 777.6 C 782.368 777.5 780.868 777.3 779.368 777.2 C 772.268 776.5 765.268 775.4 758.468 773.9 C 731.568 813 696.268 868.5 649.368 909.6 C 637.968 909.6 354.868 909.6 341.668 909.6 C 177.768 824.8 150.968 593.9 146.568 523.5 C 146.568 522.9 146.368 522.3 146.368 521.6 L 146.368 520.5 C 145.668 508 145.668 500.8 145.668 500.8 L 146.368 500.8 C 146.368 472.2 169.568 441.1 198.168 441.1 L 789.368 441.1 C 814.768 441.1 835.868 467.3 840.268 491.5 C 840.268 491.5 840.268 491.5 840.268 491.5 C 848.268 491.8 856.068 492.6 863.868 493.9 C 864.368 494 864.968 494.1 865.468 494.2 C 880.468 496.8 894.668 501.2 907.768 507.3 C 908.568 507.7 909.468 508.1 910.268 508.5 C 916.468 511.5 922.468 514.8 928.168 518.6 C 928.268 518.7 928.368 518.7 928.468 518.8 C 934.068 522.5 939.268 526.8 944.168 531.2 C 945.168 532.1 946.068 533 946.968 533.9 C 951.468 538.3 955.768 542.9 959.668 547.9 C 959.868 548.1 959.968 548.2 960.168 548.5 C 964.068 553.6 967.368 559 970.368 564.7 C 971.068 566 971.768 567.4 972.468 568.8 C 975.268 574.6 977.768 580.6 979.668 586.9 C 1001.468 661.7 945.968 743.7 855.768 770.1 Z M 310.168 500.9 L 223.568 500.9 C 223.568 500.9 212.368 772 377.268 858.6 C 248.768 607.1 310.168 500.9 310.168 500.9 Z M 916.768 605.4 C 907.368 573.1 876.768 552 840.268 547.7 C 838.168 589.2 826.068 653.3 787.868 721.4 C 790.768 721.9 793.568 722.4 796.568 722.6 C 797.768 722.7 798.968 722.9 800.268 723 C 805.868 723.2 811.668 723 817.368 722.4 C 818.968 722.2 820.568 722 822.168 721.8 C 828.268 721 834.368 719.8 840.468 718.1 C 896.168 701.8 930.268 651.4 916.768 605.4 Z M 543.968 410.1 C 654.568 261.4 543.968 224.3 518.068 198.4 C 492.068 172.5 467.868 30.7 594.068 10 C 452.268 155.2 818.768 223.4 543.968 410.1 Z M 411.068 410.1 C 501.668 288.3 411.068 259.4 389.868 238.1 C 368.668 216.9 348.868 100.8 452.168 83.8 C 335.968 202.8 636.168 257.2 411.068 410.1 Z M 846.468 990 C 789.468 990 191.268 990 120.468 990 C 49.568 990 59.868 931.7 59.868 931.7 L 899.968 931.7 C 900.068 931.7 903.468 990 846.468 990 Z"/>
  </g>
  <g style="" transform="matrix(0.067657, 0, 0, 0.067657, 699.118408, 1.239627)">
    <path d="M833.9,770.1c-7.5,2.2-15,3.8-22.4,5.1c-1.8,0.3-3.7,0.6-5.5,0.9c-7.3,1.1-14.6,1.9-21.8,2.1c-0.1,0-0.1,0-0.2,0c-7.5,0.2-14.8,0-22-0.6c-1.5-0.1-3-0.3-4.5-0.4c-7.1-0.7-14.1-1.8-20.9-3.3c-26.9,39.1-62.2,94.6-109.1,135.7c-11.4,0-294.5,0-307.7,0c-163.9-84.8-190.7-315.7-195.1-386.1c0-0.6-0.2-1.2-0.2-1.9v-1.1c-0.7-12.5-0.7-19.7-0.7-19.7h0.7c0-28.6,23.2-59.7,51.8-59.7h591.2c25.4,0,46.5,26.2,50.9,50.4c0,0,0,0,0,0c8,0.3,15.8,1.1,23.6,2.4c0.5,0.1,1.1,0.2,1.6,0.3c15,2.6,29.2,7,42.3,13.1c0.8,0.4,1.7,0.8,2.5,1.2c6.2,3,12.2,6.3,17.9,10.1c0.1,0.1,0.2,0.1,0.3,0.2c5.6,3.7,10.8,8,15.7,12.4c1,0.9,1.9,1.8,2.8,2.7c4.5,4.4,8.8,9,12.7,14c0.2,0.2,0.3,0.3,0.5,0.6c3.9,5.1,7.2,10.5,10.2,16.2c0.7,1.3,1.4,2.7,2.1,4.1c2.8,5.8,5.3,11.8,7.2,18.1C979.6,661.7,924.1,743.7,833.9,770.1z M288.3,500.9h-86.6c0,0-11.2,271.1,153.7,357.7C226.9,607.1,288.3,500.9,288.3,500.9z M894.9,605.4c-9.4-32.3-40-53.4-76.5-57.7c-2.1,41.5-14.2,105.6-52.4,173.7c2.9,0.5,5.7,1,8.7,1.2c1.2,0.1,2.4,0.3,3.7,0.4c5.6,0.2,11.4,0,17.1-0.6c1.6-0.2,3.2-0.4,4.8-0.6c6.1-0.8,12.2-2,18.3-3.7C874.3,701.8,908.4,651.4,894.9,605.4z M522.1,410.1c110.6-148.7,0-185.8-25.9-211.7C470.2,172.5,446,30.7,572.2,10C430.4,155.2,796.9,223.4,522.1,410.1z M389.2,410.1c90.6-121.8,0-150.7-21.2-172c-21.2-21.2-41-137.3,62.3-154.3C314.1,202.8,614.3,257.2,389.2,410.1z M824.6,990c-57,0-655.2,0-726,0C27.7,990,38,931.7,38,931.7h840.1C878.2,931.7,881.6,990,824.6,990z"/>
  </g>
  <g style="" transform="matrix(0.067657, 0, 0, 0.067657, 779.464905, 1.239627)">
    <path d="M833.9,770.1c-7.5,2.2-15,3.8-22.4,5.1c-1.8,0.3-3.7,0.6-5.5,0.9c-7.3,1.1-14.6,1.9-21.8,2.1c-0.1,0-0.1,0-0.2,0c-7.5,0.2-14.8,0-22-0.6c-1.5-0.1-3-0.3-4.5-0.4c-7.1-0.7-14.1-1.8-20.9-3.3c-26.9,39.1-62.2,94.6-109.1,135.7c-11.4,0-294.5,0-307.7,0c-163.9-84.8-190.7-315.7-195.1-386.1c0-0.6-0.2-1.2-0.2-1.9v-1.1c-0.7-12.5-0.7-19.7-0.7-19.7h0.7c0-28.6,23.2-59.7,51.8-59.7h591.2c25.4,0,46.5,26.2,50.9,50.4c0,0,0,0,0,0c8,0.3,15.8,1.1,23.6,2.4c0.5,0.1,1.1,0.2,1.6,0.3c15,2.6,29.2,7,42.3,13.1c0.8,0.4,1.7,0.8,2.5,1.2c6.2,3,12.2,6.3,17.9,10.1c0.1,0.1,0.2,0.1,0.3,0.2c5.6,3.7,10.8,8,15.7,12.4c1,0.9,1.9,1.8,2.8,2.7c4.5,4.4,8.8,9,12.7,14c0.2,0.2,0.3,0.3,0.5,0.6c3.9,5.1,7.2,10.5,10.2,16.2c0.7,1.3,1.4,2.7,2.1,4.1c2.8,5.8,5.3,11.8,7.2,18.1C979.6,661.7,924.1,743.7,833.9,770.1z M288.3,500.9h-86.6c0,0-11.2,271.1,153.7,357.7C226.9,607.1,288.3,500.9,288.3,500.9z M894.9,605.4c-9.4-32.3-40-53.4-76.5-57.7c-2.1,41.5-14.2,105.6-52.4,173.7c2.9,0.5,5.7,1,8.7,1.2c1.2,0.1,2.4,0.3,3.7,0.4c5.6,0.2,11.4,0,17.1-0.6c1.6-0.2,3.2-0.4,4.8-0.6c6.1-0.8,12.2-2,18.3-3.7C874.3,701.8,908.4,651.4,894.9,605.4z M522.1,410.1c110.6-148.7,0-185.8-25.9-211.7C470.2,172.5,446,30.7,572.2,10C430.4,155.2,796.9,223.4,522.1,410.1z M389.2,410.1c90.6-121.8,0-150.7-21.2-172c-21.2-21.2-41-137.3,62.3-154.3C314.1,202.8,614.3,257.2,389.2,410.1z M824.6,990c-57,0-655.2,0-726,0C27.7,990,38,931.7,38,931.7h840.1C878.2,931.7,881.6,990,824.6,990z"/>
  </g>
  <g style="" transform="matrix(0.067657, 0, 0, 0.067657, 857.142273, 1.239627)">
    <path d="M833.9,770.1c-7.5,2.2-15,3.8-22.4,5.1c-1.8,0.3-3.7,0.6-5.5,0.9c-7.3,1.1-14.6,1.9-21.8,2.1c-0.1,0-0.1,0-0.2,0c-7.5,0.2-14.8,0-22-0.6c-1.5-0.1-3-0.3-4.5-0.4c-7.1-0.7-14.1-1.8-20.9-3.3c-26.9,39.1-62.2,94.6-109.1,135.7c-11.4,0-294.5,0-307.7,0c-163.9-84.8-190.7-315.7-195.1-386.1c0-0.6-0.2-1.2-0.2-1.9v-1.1c-0.7-12.5-0.7-19.7-0.7-19.7h0.7c0-28.6,23.2-59.7,51.8-59.7h591.2c25.4,0,46.5,26.2,50.9,50.4c0,0,0,0,0,0c8,0.3,15.8,1.1,23.6,2.4c0.5,0.1,1.1,0.2,1.6,0.3c15,2.6,29.2,7,42.3,13.1c0.8,0.4,1.7,0.8,2.5,1.2c6.2,3,12.2,6.3,17.9,10.1c0.1,0.1,0.2,0.1,0.3,0.2c5.6,3.7,10.8,8,15.7,12.4c1,0.9,1.9,1.8,2.8,2.7c4.5,4.4,8.8,9,12.7,14c0.2,0.2,0.3,0.3,0.5,0.6c3.9,5.1,7.2,10.5,10.2,16.2c0.7,1.3,1.4,2.7,2.1,4.1c2.8,5.8,5.3,11.8,7.2,18.1C979.6,661.7,924.1,743.7,833.9,770.1z M288.3,500.9h-86.6c0,0-11.2,271.1,153.7,357.7C226.9,607.1,288.3,500.9,288.3,500.9z M894.9,605.4c-9.4-32.3-40-53.4-76.5-57.7c-2.1,41.5-14.2,105.6-52.4,173.7c2.9,0.5,5.7,1,8.7,1.2c1.2,0.1,2.4,0.3,3.7,0.4c5.6,0.2,11.4,0,17.1-0.6c1.6-0.2,3.2-0.4,4.8-0.6c6.1-0.8,12.2-2,18.3-3.7C874.3,701.8,908.4,651.4,894.9,605.4z M522.1,410.1c110.6-148.7,0-185.8-25.9-211.7C470.2,172.5,446,30.7,572.2,10C430.4,155.2,796.9,223.4,522.1,410.1z M389.2,410.1c90.6-121.8,0-150.7-21.2-172c-21.2-21.2-41-137.3,62.3-154.3C314.1,202.8,614.3,257.2,389.2,410.1z M824.6,990c-57,0-655.2,0-726,0C27.7,990,38,931.7,38,931.7h840.1C878.2,931.7,881.6,990,824.6,990z"/>
  </g>
  <g style="" transform="matrix(0.067657, 0, 0, 0.067657, 930.229675, 1.239627)">
    <path d="M 855.768 770.1 C 848.268 772.3 840.768 773.9 833.368 775.2 C 831.568 775.5 829.668 775.8 827.868 776.1 C 820.568 777.2 813.268 778 806.068 778.2 C 805.968 778.2 805.968 778.2 805.868 778.2 C 798.368 778.4 791.068 778.2 783.868 777.6 C 782.368 777.5 780.868 777.3 779.368 777.2 C 772.268 776.5 765.268 775.4 758.468 773.9 C 731.568 813 696.268 868.5 649.368 909.6 C 637.968 909.6 354.868 909.6 341.668 909.6 C 177.768 824.8 150.968 593.9 146.568 523.5 C 146.568 522.9 146.368 522.3 146.368 521.6 L 146.368 520.5 C 145.668 508 145.668 500.8 145.668 500.8 L 146.368 500.8 C 146.368 472.2 169.568 441.1 198.168 441.1 L 789.368 441.1 C 814.768 441.1 835.868 467.3 840.268 491.5 C 840.268 491.5 840.268 491.5 840.268 491.5 C 848.268 491.8 856.068 492.6 863.868 493.9 C 864.368 494 864.968 494.1 865.468 494.2 C 880.468 496.8 894.668 501.2 907.768 507.3 C 908.568 507.7 909.468 508.1 910.268 508.5 C 916.468 511.5 922.468 514.8 928.168 518.6 C 928.268 518.7 928.368 518.7 928.468 518.8 C 934.068 522.5 939.268 526.8 944.168 531.2 C 945.168 532.1 946.068 533 946.968 533.9 C 951.468 538.3 955.768 542.9 959.668 547.9 C 959.868 548.1 959.968 548.2 960.168 548.5 C 964.068 553.6 967.368 559 970.368 564.7 C 971.068 566 971.768 567.4 972.468 568.8 C 975.268 574.6 977.768 580.6 979.668 586.9 C 1001.468 661.7 945.968 743.7 855.768 770.1 Z M 310.168 500.9 L 223.568 500.9 C 223.568 500.9 212.368 772 377.268 858.6 C 248.768 607.1 310.168 500.9 310.168 500.9 Z M 916.768 605.4 C 907.368 573.1 876.768 552 840.268 547.7 C 838.168 589.2 826.068 653.3 787.868 721.4 C 790.768 721.9 793.568 722.4 796.568 722.6 C 797.768 722.7 798.968 722.9 800.268 723 C 805.868 723.2 811.668 723 817.368 722.4 C 818.968 722.2 820.568 722 822.168 721.8 C 828.268 721 834.368 719.8 840.468 718.1 C 896.168 701.8 930.268 651.4 916.768 605.4 Z M 543.968 410.1 C 654.568 261.4 543.968 224.3 518.068 198.4 C 492.068 172.5 467.868 30.7 594.068 10 C 452.268 155.2 818.768 223.4 543.968 410.1 Z M 411.068 410.1 C 501.668 288.3 411.068 259.4 389.868 238.1 C 368.668 216.9 348.868 100.8 452.168 83.8 C 335.968 202.8 636.168 257.2 411.068 410.1 Z M 846.468 990 C 789.468 990 191.268 990 120.468 990 C 49.568 990 59.868 931.7 59.868 931.7 L 899.968 931.7 C 900.068 931.7 903.468 990 846.468 990 Z"/>
  </g>
  <g style="" transform="matrix(0.067657, 0, 0, 0.067657, -3.811975, 1.239625)">
    <path d="M 855.768 770.1 C 848.268 772.3 840.768 773.9 833.368 775.2 C 831.568 775.5 829.668 775.8 827.868 776.1 C 820.568 777.2 813.268 778 806.068 778.2 C 805.968 778.2 805.968 778.2 805.868 778.2 C 798.368 778.4 791.068 778.2 783.868 777.6 C 782.368 777.5 780.868 777.3 779.368 777.2 C 772.268 776.5 765.268 775.4 758.468 773.9 C 731.568 813 696.268 868.5 649.368 909.6 C 637.968 909.6 354.868 909.6 341.668 909.6 C 177.768 824.8 150.968 593.9 146.568 523.5 C 146.568 522.9 146.368 522.3 146.368 521.6 L 146.368 520.5 C 145.668 508 145.668 500.8 145.668 500.8 L 146.368 500.8 C 146.368 472.2 169.568 441.1 198.168 441.1 L 789.368 441.1 C 814.768 441.1 835.868 467.3 840.268 491.5 C 840.268 491.5 840.268 491.5 840.268 491.5 C 848.268 491.8 856.068 492.6 863.868 493.9 C 864.368 494 864.968 494.1 865.468 494.2 C 880.468 496.8 894.668 501.2 907.768 507.3 C 908.568 507.7 909.468 508.1 910.268 508.5 C 916.468 511.5 922.468 514.8 928.168 518.6 C 928.268 518.7 928.368 518.7 928.468 518.8 C 934.068 522.5 939.268 526.8 944.168 531.2 C 945.168 532.1 946.068 533 946.968 533.9 C 951.468 538.3 955.768 542.9 959.668 547.9 C 959.868 548.1 959.968 548.2 960.168 548.5 C 964.068 553.6 967.368 559 970.368 564.7 C 971.068 566 971.768 567.4 972.468 568.8 C 975.268 574.6 977.768 580.6 979.668 586.9 C 1001.468 661.7 945.968 743.7 855.768 770.1 Z M 310.168 500.9 L 223.568 500.9 C 223.568 500.9 212.368 772 377.268 858.6 C 248.768 607.1 310.168 500.9 310.168 500.9 Z M 916.768 605.4 C 907.368 573.1 876.768 552 840.268 547.7 C 838.168 589.2 826.068 653.3 787.868 721.4 C 790.768 721.9 793.568 722.4 796.568 722.6 C 797.768 722.7 798.968 722.9 800.268 723 C 805.868 723.2 811.668 723 817.368 722.4 C 818.968 722.2 820.568 722 822.168 721.8 C 828.268 721 834.368 719.8 840.468 718.1 C 896.168 701.8 930.268 651.4 916.768 605.4 Z M 543.968 410.1 C 654.568 261.4 543.968 224.3 518.068 198.4 C 492.068 172.5 467.868 30.7 594.068 10 C 452.268 155.2 818.768 223.4 543.968 410.1 Z M 411.068 410.1 C 501.668 288.3 411.068 259.4 389.868 238.1 C 368.668 216.9 348.868 100.8 452.168 83.8 C 335.968 202.8 636.168 257.2 411.068 410.1 Z M 846.468 990 C 789.468 990 191.268 990 120.468 990 C 49.568 990 59.868 931.7 59.868 931.7 L 899.968 931.7 C 900.068 931.7 903.468 990 846.468 990 Z"/>
  </g>
  <g style="" transform="matrix(0.067657, 0, 0, 0.067657, 157.606644, 927.626343)">
    <path d="M833.9,770.1c-7.5,2.2-15,3.8-22.4,5.1c-1.8,0.3-3.7,0.6-5.5,0.9c-7.3,1.1-14.6,1.9-21.8,2.1c-0.1,0-0.1,0-0.2,0c-7.5,0.2-14.8,0-22-0.6c-1.5-0.1-3-0.3-4.5-0.4c-7.1-0.7-14.1-1.8-20.9-3.3c-26.9,39.1-62.2,94.6-109.1,135.7c-11.4,0-294.5,0-307.7,0c-163.9-84.8-190.7-315.7-195.1-386.1c0-0.6-0.2-1.2-0.2-1.9v-1.1c-0.7-12.5-0.7-19.7-0.7-19.7h0.7c0-28.6,23.2-59.7,51.8-59.7h591.2c25.4,0,46.5,26.2,50.9,50.4c0,0,0,0,0,0c8,0.3,15.8,1.1,23.6,2.4c0.5,0.1,1.1,0.2,1.6,0.3c15,2.6,29.2,7,42.3,13.1c0.8,0.4,1.7,0.8,2.5,1.2c6.2,3,12.2,6.3,17.9,10.1c0.1,0.1,0.2,0.1,0.3,0.2c5.6,3.7,10.8,8,15.7,12.4c1,0.9,1.9,1.8,2.8,2.7c4.5,4.4,8.8,9,12.7,14c0.2,0.2,0.3,0.3,0.5,0.6c3.9,5.1,7.2,10.5,10.2,16.2c0.7,1.3,1.4,2.7,2.1,4.1c2.8,5.8,5.3,11.8,7.2,18.1C979.6,661.7,924.1,743.7,833.9,770.1z M288.3,500.9h-86.6c0,0-11.2,271.1,153.7,357.7C226.9,607.1,288.3,500.9,288.3,500.9z M894.9,605.4c-9.4-32.3-40-53.4-76.5-57.7c-2.1,41.5-14.2,105.6-52.4,173.7c2.9,0.5,5.7,1,8.7,1.2c1.2,0.1,2.4,0.3,3.7,0.4c5.6,0.2,11.4,0,17.1-0.6c1.6-0.2,3.2-0.4,4.8-0.6c6.1-0.8,12.2-2,18.3-3.7C874.3,701.8,908.4,651.4,894.9,605.4z M522.1,410.1c110.6-148.7,0-185.8-25.9-211.7C470.2,172.5,446,30.7,572.2,10C430.4,155.2,796.9,223.4,522.1,410.1z M389.2,410.1c90.6-121.8,0-150.7-21.2-172c-21.2-21.2-41-137.3,62.3-154.3C314.1,202.8,614.3,257.2,389.2,410.1z M824.6,990c-57,0-655.2,0-726,0C27.7,990,38,931.7,38,931.7h840.1C878.2,931.7,881.6,990,824.6,990z"/>
  </g>
  <g style="" transform="matrix(0.067657, 0, 0, 0.067657, 237.95311, 927.626343)">
    <path d="M833.9,770.1c-7.5,2.2-15,3.8-22.4,5.1c-1.8,0.3-3.7,0.6-5.5,0.9c-7.3,1.1-14.6,1.9-21.8,2.1c-0.1,0-0.1,0-0.2,0c-7.5,0.2-14.8,0-22-0.6c-1.5-0.1-3-0.3-4.5-0.4c-7.1-0.7-14.1-1.8-20.9-3.3c-26.9,39.1-62.2,94.6-109.1,135.7c-11.4,0-294.5,0-307.7,0c-163.9-84.8-190.7-315.7-195.1-386.1c0-0.6-0.2-1.2-0.2-1.9v-1.1c-0.7-12.5-0.7-19.7-0.7-19.7h0.7c0-28.6,23.2-59.7,51.8-59.7h591.2c25.4,0,46.5,26.2,50.9,50.4c0,0,0,0,0,0c8,0.3,15.8,1.1,23.6,2.4c0.5,0.1,1.1,0.2,1.6,0.3c15,2.6,29.2,7,42.3,13.1c0.8,0.4,1.7,0.8,2.5,1.2c6.2,3,12.2,6.3,17.9,10.1c0.1,0.1,0.2,0.1,0.3,0.2c5.6,3.7,10.8,8,15.7,12.4c1,0.9,1.9,1.8,2.8,2.7c4.5,4.4,8.8,9,12.7,14c0.2,0.2,0.3,0.3,0.5,0.6c3.9,5.1,7.2,10.5,10.2,16.2c0.7,1.3,1.4,2.7,2.1,4.1c2.8,5.8,5.3,11.8,7.2,18.1C979.6,661.7,924.1,743.7,833.9,770.1z M288.3,500.9h-86.6c0,0-11.2,271.1,153.7,357.7C226.9,607.1,288.3,500.9,288.3,500.9z M894.9,605.4c-9.4-32.3-40-53.4-76.5-57.7c-2.1,41.5-14.2,105.6-52.4,173.7c2.9,0.5,5.7,1,8.7,1.2c1.2,0.1,2.4,0.3,3.7,0.4c5.6,0.2,11.4,0,17.1-0.6c1.6-0.2,3.2-0.4,4.8-0.6c6.1-0.8,12.2-2,18.3-3.7C874.3,701.8,908.4,651.4,894.9,605.4z M522.1,410.1c110.6-148.7,0-185.8-25.9-211.7C470.2,172.5,446,30.7,572.2,10C430.4,155.2,796.9,223.4,522.1,410.1z M389.2,410.1c90.6-121.8,0-150.7-21.2-172c-21.2-21.2-41-137.3,62.3-154.3C314.1,202.8,614.3,257.2,389.2,410.1z M824.6,990c-57,0-655.2,0-726,0C27.7,990,38,931.7,38,931.7h840.1C878.2,931.7,881.6,990,824.6,990z"/>
  </g>
  <g style="" transform="matrix(0.067657, 0, 0, 0.067657, 315.630554, 927.626343)">
    <path d="M833.9,770.1c-7.5,2.2-15,3.8-22.4,5.1c-1.8,0.3-3.7,0.6-5.5,0.9c-7.3,1.1-14.6,1.9-21.8,2.1c-0.1,0-0.1,0-0.2,0c-7.5,0.2-14.8,0-22-0.6c-1.5-0.1-3-0.3-4.5-0.4c-7.1-0.7-14.1-1.8-20.9-3.3c-26.9,39.1-62.2,94.6-109.1,135.7c-11.4,0-294.5,0-307.7,0c-163.9-84.8-190.7-315.7-195.1-386.1c0-0.6-0.2-1.2-0.2-1.9v-1.1c-0.7-12.5-0.7-19.7-0.7-19.7h0.7c0-28.6,23.2-59.7,51.8-59.7h591.2c25.4,0,46.5,26.2,50.9,50.4c0,0,0,0,0,0c8,0.3,15.8,1.1,23.6,2.4c0.5,0.1,1.1,0.2,1.6,0.3c15,2.6,29.2,7,42.3,13.1c0.8,0.4,1.7,0.8,2.5,1.2c6.2,3,12.2,6.3,17.9,10.1c0.1,0.1,0.2,0.1,0.3,0.2c5.6,3.7,10.8,8,15.7,12.4c1,0.9,1.9,1.8,2.8,2.7c4.5,4.4,8.8,9,12.7,14c0.2,0.2,0.3,0.3,0.5,0.6c3.9,5.1,7.2,10.5,10.2,16.2c0.7,1.3,1.4,2.7,2.1,4.1c2.8,5.8,5.3,11.8,7.2,18.1C979.6,661.7,924.1,743.7,833.9,770.1z M288.3,500.9h-86.6c0,0-11.2,271.1,153.7,357.7C226.9,607.1,288.3,500.9,288.3,500.9z M894.9,605.4c-9.4-32.3-40-53.4-76.5-57.7c-2.1,41.5-14.2,105.6-52.4,173.7c2.9,0.5,5.7,1,8.7,1.2c1.2,0.1,2.4,0.3,3.7,0.4c5.6,0.2,11.4,0,17.1-0.6c1.6-0.2,3.2-0.4,4.8-0.6c6.1-0.8,12.2-2,18.3-3.7C874.3,701.8,908.4,651.4,894.9,605.4z M522.1,410.1c110.6-148.7,0-185.8-25.9-211.7C470.2,172.5,446,30.7,572.2,10C430.4,155.2,796.9,223.4,522.1,410.1z M389.2,410.1c90.6-121.8,0-150.7-21.2-172c-21.2-21.2-41-137.3,62.3-154.3C314.1,202.8,614.3,257.2,389.2,410.1z M824.6,990c-57,0-655.2,0-726,0C27.7,990,38,931.7,38,931.7h840.1C878.2,931.7,881.6,990,824.6,990z"/>
  </g>
  <g style="" transform="matrix(0.067657, 0, 0, 0.067657, 394.497467, 927.626343)">
    <path d="M 855.768 770.1 C 848.268 772.3 840.768 773.9 833.368 775.2 C 831.568 775.5 829.668 775.8 827.868 776.1 C 820.568 777.2 813.268 778 806.068 778.2 C 805.968 778.2 805.968 778.2 805.868 778.2 C 798.368 778.4 791.068 778.2 783.868 777.6 C 782.368 777.5 780.868 777.3 779.368 777.2 C 772.268 776.5 765.268 775.4 758.468 773.9 C 731.568 813 696.268 868.5 649.368 909.6 C 637.968 909.6 354.868 909.6 341.668 909.6 C 177.768 824.8 150.968 593.9 146.568 523.5 C 146.568 522.9 146.368 522.3 146.368 521.6 L 146.368 520.5 C 145.668 508 145.668 500.8 145.668 500.8 L 146.368 500.8 C 146.368 472.2 169.568 441.1 198.168 441.1 L 789.368 441.1 C 814.768 441.1 835.868 467.3 840.268 491.5 C 840.268 491.5 840.268 491.5 840.268 491.5 C 848.268 491.8 856.068 492.6 863.868 493.9 C 864.368 494 864.968 494.1 865.468 494.2 C 880.468 496.8 894.668 501.2 907.768 507.3 C 908.568 507.7 909.468 508.1 910.268 508.5 C 916.468 511.5 922.468 514.8 928.168 518.6 C 928.268 518.7 928.368 518.7 928.468 518.8 C 934.068 522.5 939.268 526.8 944.168 531.2 C 945.168 532.1 946.068 533 946.968 533.9 C 951.468 538.3 955.768 542.9 959.668 547.9 C 959.868 548.1 959.968 548.2 960.168 548.5 C 964.068 553.6 967.368 559 970.368 564.7 C 971.068 566 971.768 567.4 972.468 568.8 C 975.268 574.6 977.768 580.6 979.668 586.9 C 1001.468 661.7 945.968 743.7 855.768 770.1 Z M 310.168 500.9 L 223.568 500.9 C 223.568 500.9 212.368 772 377.268 858.6 C 248.768 607.1 310.168 500.9 310.168 500.9 Z M 916.768 605.4 C 907.368 573.1 876.768 552 840.268 547.7 C 838.168 589.2 826.068 653.3 787.868 721.4 C 790.768 721.9 793.568 722.4 796.568 722.6 C 797.768 722.7 798.968 722.9 800.268 723 C 805.868 723.2 811.668 723 817.368 722.4 C 818.968 722.2 820.568 722 822.168 721.8 C 828.268 721 834.368 719.8 840.468 718.1 C 896.168 701.8 930.268 651.4 916.768 605.4 Z M 543.968 410.1 C 654.568 261.4 543.968 224.3 518.068 198.4 C 492.068 172.5 467.868 30.7 594.068 10 C 452.268 155.2 818.768 223.4 543.968 410.1 Z M 411.068 410.1 C 501.668 288.3 411.068 259.4 389.868 238.1 C 368.668 216.9 348.868 100.8 452.168 83.8 C 335.968 202.8 636.168 257.2 411.068 410.1 Z M 846.468 990 C 789.468 990 191.268 990 120.468 990 C 49.568 990 59.868 931.7 59.868 931.7 L 899.968 931.7 C 900.068 931.7 903.468 990 846.468 990 Z"/>
  </g>
  <g style="" transform="matrix(0.067657, 0, 0, 0.067657, 469.648621, 927.626343)">
    <path d="M833.9,770.1c-7.5,2.2-15,3.8-22.4,5.1c-1.8,0.3-3.7,0.6-5.5,0.9c-7.3,1.1-14.6,1.9-21.8,2.1c-0.1,0-0.1,0-0.2,0c-7.5,0.2-14.8,0-22-0.6c-1.5-0.1-3-0.3-4.5-0.4c-7.1-0.7-14.1-1.8-20.9-3.3c-26.9,39.1-62.2,94.6-109.1,135.7c-11.4,0-294.5,0-307.7,0c-163.9-84.8-190.7-315.7-195.1-386.1c0-0.6-0.2-1.2-0.2-1.9v-1.1c-0.7-12.5-0.7-19.7-0.7-19.7h0.7c0-28.6,23.2-59.7,51.8-59.7h591.2c25.4,0,46.5,26.2,50.9,50.4c0,0,0,0,0,0c8,0.3,15.8,1.1,23.6,2.4c0.5,0.1,1.1,0.2,1.6,0.3c15,2.6,29.2,7,42.3,13.1c0.8,0.4,1.7,0.8,2.5,1.2c6.2,3,12.2,6.3,17.9,10.1c0.1,0.1,0.2,0.1,0.3,0.2c5.6,3.7,10.8,8,15.7,12.4c1,0.9,1.9,1.8,2.8,2.7c4.5,4.4,8.8,9,12.7,14c0.2,0.2,0.3,0.3,0.5,0.6c3.9,5.1,7.2,10.5,10.2,16.2c0.7,1.3,1.4,2.7,2.1,4.1c2.8,5.8,5.3,11.8,7.2,18.1C979.6,661.7,924.1,743.7,833.9,770.1z M288.3,500.9h-86.6c0,0-11.2,271.1,153.7,357.7C226.9,607.1,288.3,500.9,288.3,500.9z M894.9,605.4c-9.4-32.3-40-53.4-76.5-57.7c-2.1,41.5-14.2,105.6-52.4,173.7c2.9,0.5,5.7,1,8.7,1.2c1.2,0.1,2.4,0.3,3.7,0.4c5.6,0.2,11.4,0,17.1-0.6c1.6-0.2,3.2-0.4,4.8-0.6c6.1-0.8,12.2-2,18.3-3.7C874.3,701.8,908.4,651.4,894.9,605.4z M522.1,410.1c110.6-148.7,0-185.8-25.9-211.7C470.2,172.5,446,30.7,572.2,10C430.4,155.2,796.9,223.4,522.1,410.1z M389.2,410.1c90.6-121.8,0-150.7-21.2-172c-21.2-21.2-41-137.3,62.3-154.3C314.1,202.8,614.3,257.2,389.2,410.1z M824.6,990c-57,0-655.2,0-726,0C27.7,990,38,931.7,38,931.7h840.1C878.2,931.7,881.6,990,824.6,990z"/>
  </g>
  <g style="" transform="matrix(0.067657, 0, 0, 0.067657, 549.995056, 927.626343)">
    <path d="M833.9,770.1c-7.5,2.2-15,3.8-22.4,5.1c-1.8,0.3-3.7,0.6-5.5,0.9c-7.3,1.1-14.6,1.9-21.8,2.1c-0.1,0-0.1,0-0.2,0c-7.5,0.2-14.8,0-22-0.6c-1.5-0.1-3-0.3-4.5-0.4c-7.1-0.7-14.1-1.8-20.9-3.3c-26.9,39.1-62.2,94.6-109.1,135.7c-11.4,0-294.5,0-307.7,0c-163.9-84.8-190.7-315.7-195.1-386.1c0-0.6-0.2-1.2-0.2-1.9v-1.1c-0.7-12.5-0.7-19.7-0.7-19.7h0.7c0-28.6,23.2-59.7,51.8-59.7h591.2c25.4,0,46.5,26.2,50.9,50.4c0,0,0,0,0,0c8,0.3,15.8,1.1,23.6,2.4c0.5,0.1,1.1,0.2,1.6,0.3c15,2.6,29.2,7,42.3,13.1c0.8,0.4,1.7,0.8,2.5,1.2c6.2,3,12.2,6.3,17.9,10.1c0.1,0.1,0.2,0.1,0.3,0.2c5.6,3.7,10.8,8,15.7,12.4c1,0.9,1.9,1.8,2.8,2.7c4.5,4.4,8.8,9,12.7,14c0.2,0.2,0.3,0.3,0.5,0.6c3.9,5.1,7.2,10.5,10.2,16.2c0.7,1.3,1.4,2.7,2.1,4.1c2.8,5.8,5.3,11.8,7.2,18.1C979.6,661.7,924.1,743.7,833.9,770.1z M288.3,500.9h-86.6c0,0-11.2,271.1,153.7,357.7C226.9,607.1,288.3,500.9,288.3,500.9z M894.9,605.4c-9.4-32.3-40-53.4-76.5-57.7c-2.1,41.5-14.2,105.6-52.4,173.7c2.9,0.5,5.7,1,8.7,1.2c1.2,0.1,2.4,0.3,3.7,0.4c5.6,0.2,11.4,0,17.1-0.6c1.6-0.2,3.2-0.4,4.8-0.6c6.1-0.8,12.2-2,18.3-3.7C874.3,701.8,908.4,651.4,894.9,605.4z M522.1,410.1c110.6-148.7,0-185.8-25.9-211.7C470.2,172.5,446,30.7,572.2,10C430.4,155.2,796.9,223.4,522.1,410.1z M389.2,410.1c90.6-121.8,0-150.7-21.2-172c-21.2-21.2-41-137.3,62.3-154.3C314.1,202.8,614.3,257.2,389.2,410.1z M824.6,990c-57,0-655.2,0-726,0C27.7,990,38,931.7,38,931.7h840.1C878.2,931.7,881.6,990,824.6,990z"/>
  </g>
  <g style="" transform="matrix(0.067657, 0, 0, 0.067657, 627.672485, 927.626343)">
    <path d="M833.9,770.1c-7.5,2.2-15,3.8-22.4,5.1c-1.8,0.3-3.7,0.6-5.5,0.9c-7.3,1.1-14.6,1.9-21.8,2.1c-0.1,0-0.1,0-0.2,0c-7.5,0.2-14.8,0-22-0.6c-1.5-0.1-3-0.3-4.5-0.4c-7.1-0.7-14.1-1.8-20.9-3.3c-26.9,39.1-62.2,94.6-109.1,135.7c-11.4,0-294.5,0-307.7,0c-163.9-84.8-190.7-315.7-195.1-386.1c0-0.6-0.2-1.2-0.2-1.9v-1.1c-0.7-12.5-0.7-19.7-0.7-19.7h0.7c0-28.6,23.2-59.7,51.8-59.7h591.2c25.4,0,46.5,26.2,50.9,50.4c0,0,0,0,0,0c8,0.3,15.8,1.1,23.6,2.4c0.5,0.1,1.1,0.2,1.6,0.3c15,2.6,29.2,7,42.3,13.1c0.8,0.4,1.7,0.8,2.5,1.2c6.2,3,12.2,6.3,17.9,10.1c0.1,0.1,0.2,0.1,0.3,0.2c5.6,3.7,10.8,8,15.7,12.4c1,0.9,1.9,1.8,2.8,2.7c4.5,4.4,8.8,9,12.7,14c0.2,0.2,0.3,0.3,0.5,0.6c3.9,5.1,7.2,10.5,10.2,16.2c0.7,1.3,1.4,2.7,2.1,4.1c2.8,5.8,5.3,11.8,7.2,18.1C979.6,661.7,924.1,743.7,833.9,770.1z M288.3,500.9h-86.6c0,0-11.2,271.1,153.7,357.7C226.9,607.1,288.3,500.9,288.3,500.9z M894.9,605.4c-9.4-32.3-40-53.4-76.5-57.7c-2.1,41.5-14.2,105.6-52.4,173.7c2.9,0.5,5.7,1,8.7,1.2c1.2,0.1,2.4,0.3,3.7,0.4c5.6,0.2,11.4,0,17.1-0.6c1.6-0.2,3.2-0.4,4.8-0.6c6.1-0.8,12.2-2,18.3-3.7C874.3,701.8,908.4,651.4,894.9,605.4z M522.1,410.1c110.6-148.7,0-185.8-25.9-211.7C470.2,172.5,446,30.7,572.2,10C430.4,155.2,796.9,223.4,522.1,410.1z M389.2,410.1c90.6-121.8,0-150.7-21.2-172c-21.2-21.2-41-137.3,62.3-154.3C314.1,202.8,614.3,257.2,389.2,410.1z M824.6,990c-57,0-655.2,0-726,0C27.7,990,38,931.7,38,931.7h840.1C878.2,931.7,881.6,990,824.6,990z"/>
  </g>
  <g style="" transform="matrix(0.067657, 0, 0, 0.067657, 706.539368, 927.626343)">
    <path d="M 855.768 770.1 C 848.268 772.3 840.768 773.9 833.368 775.2 C 831.568 775.5 829.668 775.8 827.868 776.1 C 820.568 777.2 813.268 778 806.068 778.2 C 805.968 778.2 805.968 778.2 805.868 778.2 C 798.368 778.4 791.068 778.2 783.868 777.6 C 782.368 777.5 780.868 777.3 779.368 777.2 C 772.268 776.5 765.268 775.4 758.468 773.9 C 731.568 813 696.268 868.5 649.368 909.6 C 637.968 909.6 354.868 909.6 341.668 909.6 C 177.768 824.8 150.968 593.9 146.568 523.5 C 146.568 522.9 146.368 522.3 146.368 521.6 L 146.368 520.5 C 145.668 508 145.668 500.8 145.668 500.8 L 146.368 500.8 C 146.368 472.2 169.568 441.1 198.168 441.1 L 789.368 441.1 C 814.768 441.1 835.868 467.3 840.268 491.5 C 840.268 491.5 840.268 491.5 840.268 491.5 C 848.268 491.8 856.068 492.6 863.868 493.9 C 864.368 494 864.968 494.1 865.468 494.2 C 880.468 496.8 894.668 501.2 907.768 507.3 C 908.568 507.7 909.468 508.1 910.268 508.5 C 916.468 511.5 922.468 514.8 928.168 518.6 C 928.268 518.7 928.368 518.7 928.468 518.8 C 934.068 522.5 939.268 526.8 944.168 531.2 C 945.168 532.1 946.068 533 946.968 533.9 C 951.468 538.3 955.768 542.9 959.668 547.9 C 959.868 548.1 959.968 548.2 960.168 548.5 C 964.068 553.6 967.368 559 970.368 564.7 C 971.068 566 971.768 567.4 972.468 568.8 C 975.268 574.6 977.768 580.6 979.668 586.9 C 1001.468 661.7 945.968 743.7 855.768 770.1 Z M 310.168 500.9 L 223.568 500.9 C 223.568 500.9 212.368 772 377.268 858.6 C 248.768 607.1 310.168 500.9 310.168 500.9 Z M 916.768 605.4 C 907.368 573.1 876.768 552 840.268 547.7 C 838.168 589.2 826.068 653.3 787.868 721.4 C 790.768 721.9 793.568 722.4 796.568 722.6 C 797.768 722.7 798.968 722.9 800.268 723 C 805.868 723.2 811.668 723 817.368 722.4 C 818.968 722.2 820.568 722 822.168 721.8 C 828.268 721 834.368 719.8 840.468 718.1 C 896.168 701.8 930.268 651.4 916.768 605.4 Z M 543.968 410.1 C 654.568 261.4 543.968 224.3 518.068 198.4 C 492.068 172.5 467.868 30.7 594.068 10 C 452.268 155.2 818.768 223.4 543.968 410.1 Z M 411.068 410.1 C 501.668 288.3 411.068 259.4 389.868 238.1 C 368.668 216.9 348.868 100.8 452.168 83.8 C 335.968 202.8 636.168 257.2 411.068 410.1 Z M 846.468 990 C 789.468 990 191.268 990 120.468 990 C 49.568 990 59.868 931.7 59.868 931.7 L 899.968 931.7 C 900.068 931.7 903.468 990 846.468 990 Z"/>
  </g>
  <g style="" transform="matrix(0.067657, 0, 0, 0.067657, 781.834778, 927.626343)">
    <path d="M833.9,770.1c-7.5,2.2-15,3.8-22.4,5.1c-1.8,0.3-3.7,0.6-5.5,0.9c-7.3,1.1-14.6,1.9-21.8,2.1c-0.1,0-0.1,0-0.2,0c-7.5,0.2-14.8,0-22-0.6c-1.5-0.1-3-0.3-4.5-0.4c-7.1-0.7-14.1-1.8-20.9-3.3c-26.9,39.1-62.2,94.6-109.1,135.7c-11.4,0-294.5,0-307.7,0c-163.9-84.8-190.7-315.7-195.1-386.1c0-0.6-0.2-1.2-0.2-1.9v-1.1c-0.7-12.5-0.7-19.7-0.7-19.7h0.7c0-28.6,23.2-59.7,51.8-59.7h591.2c25.4,0,46.5,26.2,50.9,50.4c0,0,0,0,0,0c8,0.3,15.8,1.1,23.6,2.4c0.5,0.1,1.1,0.2,1.6,0.3c15,2.6,29.2,7,42.3,13.1c0.8,0.4,1.7,0.8,2.5,1.2c6.2,3,12.2,6.3,17.9,10.1c0.1,0.1,0.2,0.1,0.3,0.2c5.6,3.7,10.8,8,15.7,12.4c1,0.9,1.9,1.8,2.8,2.7c4.5,4.4,8.8,9,12.7,14c0.2,0.2,0.3,0.3,0.5,0.6c3.9,5.1,7.2,10.5,10.2,16.2c0.7,1.3,1.4,2.7,2.1,4.1c2.8,5.8,5.3,11.8,7.2,18.1C979.6,661.7,924.1,743.7,833.9,770.1z M288.3,500.9h-86.6c0,0-11.2,271.1,153.7,357.7C226.9,607.1,288.3,500.9,288.3,500.9z M894.9,605.4c-9.4-32.3-40-53.4-76.5-57.7c-2.1,41.5-14.2,105.6-52.4,173.7c2.9,0.5,5.7,1,8.7,1.2c1.2,0.1,2.4,0.3,3.7,0.4c5.6,0.2,11.4,0,17.1-0.6c1.6-0.2,3.2-0.4,4.8-0.6c6.1-0.8,12.2-2,18.3-3.7C874.3,701.8,908.4,651.4,894.9,605.4z M522.1,410.1c110.6-148.7,0-185.8-25.9-211.7C470.2,172.5,446,30.7,572.2,10C430.4,155.2,796.9,223.4,522.1,410.1z M389.2,410.1c90.6-121.8,0-150.7-21.2-172c-21.2-21.2-41-137.3,62.3-154.3C314.1,202.8,614.3,257.2,389.2,410.1z M824.6,990c-57,0-655.2,0-726,0C27.7,990,38,931.7,38,931.7h840.1C878.2,931.7,881.6,990,824.6,990z"/>
  </g>
  <g style="" transform="matrix(0.067657, 0, 0, 0.067657, 858.713562, 927.626343)">
    <path d="M833.9,770.1c-7.5,2.2-15,3.8-22.4,5.1c-1.8,0.3-3.7,0.6-5.5,0.9c-7.3,1.1-14.6,1.9-21.8,2.1c-0.1,0-0.1,0-0.2,0c-7.5,0.2-14.8,0-22-0.6c-1.5-0.1-3-0.3-4.5-0.4c-7.1-0.7-14.1-1.8-20.9-3.3c-26.9,39.1-62.2,94.6-109.1,135.7c-11.4,0-294.5,0-307.7,0c-163.9-84.8-190.7-315.7-195.1-386.1c0-0.6-0.2-1.2-0.2-1.9v-1.1c-0.7-12.5-0.7-19.7-0.7-19.7h0.7c0-28.6,23.2-59.7,51.8-59.7h591.2c25.4,0,46.5,26.2,50.9,50.4c0,0,0,0,0,0c8,0.3,15.8,1.1,23.6,2.4c0.5,0.1,1.1,0.2,1.6,0.3c15,2.6,29.2,7,42.3,13.1c0.8,0.4,1.7,0.8,2.5,1.2c6.2,3,12.2,6.3,17.9,10.1c0.1,0.1,0.2,0.1,0.3,0.2c5.6,3.7,10.8,8,15.7,12.4c1,0.9,1.9,1.8,2.8,2.7c4.5,4.4,8.8,9,12.7,14c0.2,0.2,0.3,0.3,0.5,0.6c3.9,5.1,7.2,10.5,10.2,16.2c0.7,1.3,1.4,2.7,2.1,4.1c2.8,5.8,5.3,11.8,7.2,18.1C979.6,661.7,924.1,743.7,833.9,770.1z M288.3,500.9h-86.6c0,0-11.2,271.1,153.7,357.7C226.9,607.1,288.3,500.9,288.3,500.9z M894.9,605.4c-9.4-32.3-40-53.4-76.5-57.7c-2.1,41.5-14.2,105.6-52.4,173.7c2.9,0.5,5.7,1,8.7,1.2c1.2,0.1,2.4,0.3,3.7,0.4c5.6,0.2,11.4,0,17.1-0.6c1.6-0.2,3.2-0.4,4.8-0.6c6.1-0.8,12.2-2,18.3-3.7C874.3,701.8,908.4,651.4,894.9,605.4z M522.1,410.1c110.6-148.7,0-185.8-25.9-211.7C470.2,172.5,446,30.7,572.2,10C430.4,155.2,796.9,223.4,522.1,410.1z M389.2,410.1c90.6-121.8,0-150.7-21.2-172c-21.2-21.2-41-137.3,62.3-154.3C314.1,202.8,614.3,257.2,389.2,410.1z M824.6,990c-57,0-655.2,0-726,0C27.7,990,38,931.7,38,931.7h840.1C878.2,931.7,881.6,990,824.6,990z"/>
  </g>
  <g style="" transform="matrix(0.067657, 0, 0, 0.067657, 932.923218, 927.626343)">
    <path d="M833.9,770.1c-7.5,2.2-15,3.8-22.4,5.1c-1.8,0.3-3.7,0.6-5.5,0.9c-7.3,1.1-14.6,1.9-21.8,2.1c-0.1,0-0.1,0-0.2,0c-7.5,0.2-14.8,0-22-0.6c-1.5-0.1-3-0.3-4.5-0.4c-7.1-0.7-14.1-1.8-20.9-3.3c-26.9,39.1-62.2,94.6-109.1,135.7c-11.4,0-294.5,0-307.7,0c-163.9-84.8-190.7-315.7-195.1-386.1c0-0.6-0.2-1.2-0.2-1.9v-1.1c-0.7-12.5-0.7-19.7-0.7-19.7h0.7c0-28.6,23.2-59.7,51.8-59.7h591.2c25.4,0,46.5,26.2,50.9,50.4c0,0,0,0,0,0c8,0.3,15.8,1.1,23.6,2.4c0.5,0.1,1.1,0.2,1.6,0.3c15,2.6,29.2,7,42.3,13.1c0.8,0.4,1.7,0.8,2.5,1.2c6.2,3,12.2,6.3,17.9,10.1c0.1,0.1,0.2,0.1,0.3,0.2c5.6,3.7,10.8,8,15.7,12.4c1,0.9,1.9,1.8,2.8,2.7c4.5,4.4,8.8,9,12.7,14c0.2,0.2,0.3,0.3,0.5,0.6c3.9,5.1,7.2,10.5,10.2,16.2c0.7,1.3,1.4,2.7,2.1,4.1c2.8,5.8,5.3,11.8,7.2,18.1C979.6,661.7,924.1,743.7,833.9,770.1z M288.3,500.9h-86.6c0,0-11.2,271.1,153.7,357.7C226.9,607.1,288.3,500.9,288.3,500.9z M894.9,605.4c-9.4-32.3-40-53.4-76.5-57.7c-2.1,41.5-14.2,105.6-52.4,173.7c2.9,0.5,5.7,1,8.7,1.2c1.2,0.1,2.4,0.3,3.7,0.4c5.6,0.2,11.4,0,17.1-0.6c1.6-0.2,3.2-0.4,4.8-0.6c6.1-0.8,12.2-2,18.3-3.7C874.3,701.8,908.4,651.4,894.9,605.4z M522.1,410.1c110.6-148.7,0-185.8-25.9-211.7C470.2,172.5,446,30.7,572.2,10C430.4,155.2,796.9,223.4,522.1,410.1z M389.2,410.1c90.6-121.8,0-150.7-21.2-172c-21.2-21.2-41-137.3,62.3-154.3C314.1,202.8,614.3,257.2,389.2,410.1z M824.6,990c-57,0-655.2,0-726,0C27.7,990,38,931.7,38,931.7h840.1C878.2,931.7,881.6,990,824.6,990z"/>
  </g>
  <g style="" transform="matrix(0.067657, 0, 0, 0.067657, -2.063318, 927.626343)">
    <path d="M833.9,770.1c-7.5,2.2-15,3.8-22.4,5.1c-1.8,0.3-3.7,0.6-5.5,0.9c-7.3,1.1-14.6,1.9-21.8,2.1c-0.1,0-0.1,0-0.2,0c-7.5,0.2-14.8,0-22-0.6c-1.5-0.1-3-0.3-4.5-0.4c-7.1-0.7-14.1-1.8-20.9-3.3c-26.9,39.1-62.2,94.6-109.1,135.7c-11.4,0-294.5,0-307.7,0c-163.9-84.8-190.7-315.7-195.1-386.1c0-0.6-0.2-1.2-0.2-1.9v-1.1c-0.7-12.5-0.7-19.7-0.7-19.7h0.7c0-28.6,23.2-59.7,51.8-59.7h591.2c25.4,0,46.5,26.2,50.9,50.4c0,0,0,0,0,0c8,0.3,15.8,1.1,23.6,2.4c0.5,0.1,1.1,0.2,1.6,0.3c15,2.6,29.2,7,42.3,13.1c0.8,0.4,1.7,0.8,2.5,1.2c6.2,3,12.2,6.3,17.9,10.1c0.1,0.1,0.2,0.1,0.3,0.2c5.6,3.7,10.8,8,15.7,12.4c1,0.9,1.9,1.8,2.8,2.7c4.5,4.4,8.8,9,12.7,14c0.2,0.2,0.3,0.3,0.5,0.6c3.9,5.1,7.2,10.5,10.2,16.2c0.7,1.3,1.4,2.7,2.1,4.1c2.8,5.8,5.3,11.8,7.2,18.1C979.6,661.7,924.1,743.7,833.9,770.1z M288.3,500.9h-86.6c0,0-11.2,271.1,153.7,357.7C226.9,607.1,288.3,500.9,288.3,500.9z M894.9,605.4c-9.4-32.3-40-53.4-76.5-57.7c-2.1,41.5-14.2,105.6-52.4,173.7c2.9,0.5,5.7,1,8.7,1.2c1.2,0.1,2.4,0.3,3.7,0.4c5.6,0.2,11.4,0,17.1-0.6c1.6-0.2,3.2-0.4,4.8-0.6c6.1-0.8,12.2-2,18.3-3.7C874.3,701.8,908.4,651.4,894.9,605.4z M522.1,410.1c110.6-148.7,0-185.8-25.9-211.7C470.2,172.5,446,30.7,572.2,10C430.4,155.2,796.9,223.4,522.1,410.1z M389.2,410.1c90.6-121.8,0-150.7-21.2-172c-21.2-21.2-41-137.3,62.3-154.3C314.1,202.8,614.3,257.2,389.2,410.1z M824.6,990c-57,0-655.2,0-726,0C27.7,990,38,931.7,38,931.7h840.1C878.2,931.7,881.6,990,824.6,990z"/>
  </g>
  <g style="" transform="matrix(0.067657, 0, 0, 0.067657, 76.803589, 927.626343)">
    <path d="M 855.768 770.1 C 848.268 772.3 840.768 773.9 833.368 775.2 C 831.568 775.5 829.668 775.8 827.868 776.1 C 820.568 777.2 813.268 778 806.068 778.2 C 805.968 778.2 805.968 778.2 805.868 778.2 C 798.368 778.4 791.068 778.2 783.868 777.6 C 782.368 777.5 780.868 777.3 779.368 777.2 C 772.268 776.5 765.268 775.4 758.468 773.9 C 731.568 813 696.268 868.5 649.368 909.6 C 637.968 909.6 354.868 909.6 341.668 909.6 C 177.768 824.8 150.968 593.9 146.568 523.5 C 146.568 522.9 146.368 522.3 146.368 521.6 L 146.368 520.5 C 145.668 508 145.668 500.8 145.668 500.8 L 146.368 500.8 C 146.368 472.2 169.568 441.1 198.168 441.1 L 789.368 441.1 C 814.768 441.1 835.868 467.3 840.268 491.5 C 840.268 491.5 840.268 491.5 840.268 491.5 C 848.268 491.8 856.068 492.6 863.868 493.9 C 864.368 494 864.968 494.1 865.468 494.2 C 880.468 496.8 894.668 501.2 907.768 507.3 C 908.568 507.7 909.468 508.1 910.268 508.5 C 916.468 511.5 922.468 514.8 928.168 518.6 C 928.268 518.7 928.368 518.7 928.468 518.8 C 934.068 522.5 939.268 526.8 944.168 531.2 C 945.168 532.1 946.068 533 946.968 533.9 C 951.468 538.3 955.768 542.9 959.668 547.9 C 959.868 548.1 959.968 548.2 960.168 548.5 C 964.068 553.6 967.368 559 970.368 564.7 C 971.068 566 971.768 567.4 972.468 568.8 C 975.268 574.6 977.768 580.6 979.668 586.9 C 1001.468 661.7 945.968 743.7 855.768 770.1 Z M 310.168 500.9 L 223.568 500.9 C 223.568 500.9 212.368 772 377.268 858.6 C 248.768 607.1 310.168 500.9 310.168 500.9 Z M 916.768 605.4 C 907.368 573.1 876.768 552 840.268 547.7 C 838.168 589.2 826.068 653.3 787.868 721.4 C 790.768 721.9 793.568 722.4 796.568 722.6 C 797.768 722.7 798.968 722.9 800.268 723 C 805.868 723.2 811.668 723 817.368 722.4 C 818.968 722.2 820.568 722 822.168 721.8 C 828.268 721 834.368 719.8 840.468 718.1 C 896.168 701.8 930.268 651.4 916.768 605.4 Z M 543.968 410.1 C 654.568 261.4 543.968 224.3 518.068 198.4 C 492.068 172.5 467.868 30.7 594.068 10 C 452.268 155.2 818.768 223.4 543.968 410.1 Z M 411.068 410.1 C 501.668 288.3 411.068 259.4 389.868 238.1 C 368.668 216.9 348.868 100.8 452.168 83.8 C 335.968 202.8 636.168 257.2 411.068 410.1 Z M 846.468 990 C 789.468 990 191.268 990 120.468 990 C 49.568 990 59.868 931.7 59.868 931.7 L 899.968 931.7 C 900.068 931.7 903.468 990 846.468 990 Z"/>
  </g>
  <g style="" transform="matrix(0.067657, 0, 0, 0.067657, -3.811975, 77.395889)">
    <path d="M 855.768 770.1 C 848.268 772.3 840.768 773.9 833.368 775.2 C 831.568 775.5 829.668 775.8 827.868 776.1 C 820.568 777.2 813.268 778 806.068 778.2 C 805.968 778.2 805.968 778.2 805.868 778.2 C 798.368 778.4 791.068 778.2 783.868 777.6 C 782.368 777.5 780.868 777.3 779.368 777.2 C 772.268 776.5 765.268 775.4 758.468 773.9 C 731.568 813 696.268 868.5 649.368 909.6 C 637.968 909.6 354.868 909.6 341.668 909.6 C 177.768 824.8 150.968 593.9 146.568 523.5 C 146.568 522.9 146.368 522.3 146.368 521.6 L 146.368 520.5 C 145.668 508 145.668 500.8 145.668 500.8 L 146.368 500.8 C 146.368 472.2 169.568 441.1 198.168 441.1 L 789.368 441.1 C 814.768 441.1 835.868 467.3 840.268 491.5 C 840.268 491.5 840.268 491.5 840.268 491.5 C 848.268 491.8 856.068 492.6 863.868 493.9 C 864.368 494 864.968 494.1 865.468 494.2 C 880.468 496.8 894.668 501.2 907.768 507.3 C 908.568 507.7 909.468 508.1 910.268 508.5 C 916.468 511.5 922.468 514.8 928.168 518.6 C 928.268 518.7 928.368 518.7 928.468 518.8 C 934.068 522.5 939.268 526.8 944.168 531.2 C 945.168 532.1 946.068 533 946.968 533.9 C 951.468 538.3 955.768 542.9 959.668 547.9 C 959.868 548.1 959.968 548.2 960.168 548.5 C 964.068 553.6 967.368 559 970.368 564.7 C 971.068 566 971.768 567.4 972.468 568.8 C 975.268 574.6 977.768 580.6 979.668 586.9 C 1001.468 661.7 945.968 743.7 855.768 770.1 Z M 310.168 500.9 L 223.568 500.9 C 223.568 500.9 212.368 772 377.268 858.6 C 248.768 607.1 310.168 500.9 310.168 500.9 Z M 916.768 605.4 C 907.368 573.1 876.768 552 840.268 547.7 C 838.168 589.2 826.068 653.3 787.868 721.4 C 790.768 721.9 793.568 722.4 796.568 722.6 C 797.768 722.7 798.968 722.9 800.268 723 C 805.868 723.2 811.668 723 817.368 722.4 C 818.968 722.2 820.568 722 822.168 721.8 C 828.268 721 834.368 719.8 840.468 718.1 C 896.168 701.8 930.268 651.4 916.768 605.4 Z M 543.968 410.1 C 654.568 261.4 543.968 224.3 518.068 198.4 C 492.068 172.5 467.868 30.7 594.068 10 C 452.268 155.2 818.768 223.4 543.968 410.1 Z M 411.068 410.1 C 501.668 288.3 411.068 259.4 389.868 238.1 C 368.668 216.9 348.868 100.8 452.168 83.8 C 335.968 202.8 636.168 257.2 411.068 410.1 Z M 846.468 990 C 789.468 990 191.268 990 120.468 990 C 49.568 990 59.868 931.7 59.868 931.7 L 899.968 931.7 C 900.068 931.7 903.468 990 846.468 990 Z"/>
  </g>
  <g style="" transform="matrix(0.067657, 0, 0, 0.067657, -3.811975, 158.953674)">
    <path d="M 855.768 770.1 C 848.268 772.3 840.768 773.9 833.368 775.2 C 831.568 775.5 829.668 775.8 827.868 776.1 C 820.568 777.2 813.268 778 806.068 778.2 C 805.968 778.2 805.968 778.2 805.868 778.2 C 798.368 778.4 791.068 778.2 783.868 777.6 C 782.368 777.5 780.868 777.3 779.368 777.2 C 772.268 776.5 765.268 775.4 758.468 773.9 C 731.568 813 696.268 868.5 649.368 909.6 C 637.968 909.6 354.868 909.6 341.668 909.6 C 177.768 824.8 150.968 593.9 146.568 523.5 C 146.568 522.9 146.368 522.3 146.368 521.6 L 146.368 520.5 C 145.668 508 145.668 500.8 145.668 500.8 L 146.368 500.8 C 146.368 472.2 169.568 441.1 198.168 441.1 L 789.368 441.1 C 814.768 441.1 835.868 467.3 840.268 491.5 C 840.268 491.5 840.268 491.5 840.268 491.5 C 848.268 491.8 856.068 492.6 863.868 493.9 C 864.368 494 864.968 494.1 865.468 494.2 C 880.468 496.8 894.668 501.2 907.768 507.3 C 908.568 507.7 909.468 508.1 910.268 508.5 C 916.468 511.5 922.468 514.8 928.168 518.6 C 928.268 518.7 928.368 518.7 928.468 518.8 C 934.068 522.5 939.268 526.8 944.168 531.2 C 945.168 532.1 946.068 533 946.968 533.9 C 951.468 538.3 955.768 542.9 959.668 547.9 C 959.868 548.1 959.968 548.2 960.168 548.5 C 964.068 553.6 967.368 559 970.368 564.7 C 971.068 566 971.768 567.4 972.468 568.8 C 975.268 574.6 977.768 580.6 979.668 586.9 C 1001.468 661.7 945.968 743.7 855.768 770.1 Z M 310.168 500.9 L 223.568 500.9 C 223.568 500.9 212.368 772 377.268 858.6 C 248.768 607.1 310.168 500.9 310.168 500.9 Z M 916.768 605.4 C 907.368 573.1 876.768 552 840.268 547.7 C 838.168 589.2 826.068 653.3 787.868 721.4 C 790.768 721.9 793.568 722.4 796.568 722.6 C 797.768 722.7 798.968 722.9 800.268 723 C 805.868 723.2 811.668 723 817.368 722.4 C 818.968 722.2 820.568 722 822.168 721.8 C 828.268 721 834.368 719.8 840.468 718.1 C 896.168 701.8 930.268 651.4 916.768 605.4 Z M 543.968 410.1 C 654.568 261.4 543.968 224.3 518.068 198.4 C 492.068 172.5 467.868 30.7 594.068 10 C 452.268 155.2 818.768 223.4 543.968 410.1 Z M 411.068 410.1 C 501.668 288.3 411.068 259.4 389.868 238.1 C 368.668 216.9 348.868 100.8 452.168 83.8 C 335.968 202.8 636.168 257.2 411.068 410.1 Z M 846.468 990 C 789.468 990 191.268 990 120.468 990 C 49.568 990 59.868 931.7 59.868 931.7 L 899.968 931.7 C 900.068 931.7 903.468 990 846.468 990 Z"/>
  </g>
  <g style="" transform="matrix(0.067657, 0, 0, 0.067657, -3.811975, 237.421738)">
    <path d="M 855.768 770.1 C 848.268 772.3 840.768 773.9 833.368 775.2 C 831.568 775.5 829.668 775.8 827.868 776.1 C 820.568 777.2 813.268 778 806.068 778.2 C 805.968 778.2 805.968 778.2 805.868 778.2 C 798.368 778.4 791.068 778.2 783.868 777.6 C 782.368 777.5 780.868 777.3 779.368 777.2 C 772.268 776.5 765.268 775.4 758.468 773.9 C 731.568 813 696.268 868.5 649.368 909.6 C 637.968 909.6 354.868 909.6 341.668 909.6 C 177.768 824.8 150.968 593.9 146.568 523.5 C 146.568 522.9 146.368 522.3 146.368 521.6 L 146.368 520.5 C 145.668 508 145.668 500.8 145.668 500.8 L 146.368 500.8 C 146.368 472.2 169.568 441.1 198.168 441.1 L 789.368 441.1 C 814.768 441.1 835.868 467.3 840.268 491.5 C 840.268 491.5 840.268 491.5 840.268 491.5 C 848.268 491.8 856.068 492.6 863.868 493.9 C 864.368 494 864.968 494.1 865.468 494.2 C 880.468 496.8 894.668 501.2 907.768 507.3 C 908.568 507.7 909.468 508.1 910.268 508.5 C 916.468 511.5 922.468 514.8 928.168 518.6 C 928.268 518.7 928.368 518.7 928.468 518.8 C 934.068 522.5 939.268 526.8 944.168 531.2 C 945.168 532.1 946.068 533 946.968 533.9 C 951.468 538.3 955.768 542.9 959.668 547.9 C 959.868 548.1 959.968 548.2 960.168 548.5 C 964.068 553.6 967.368 559 970.368 564.7 C 971.068 566 971.768 567.4 972.468 568.8 C 975.268 574.6 977.768 580.6 979.668 586.9 C 1001.468 661.7 945.968 743.7 855.768 770.1 Z M 310.168 500.9 L 223.568 500.9 C 223.568 500.9 212.368 772 377.268 858.6 C 248.768 607.1 310.168 500.9 310.168 500.9 Z M 916.768 605.4 C 907.368 573.1 876.768 552 840.268 547.7 C 838.168 589.2 826.068 653.3 787.868 721.4 C 790.768 721.9 793.568 722.4 796.568 722.6 C 797.768 722.7 798.968 722.9 800.268 723 C 805.868 723.2 811.668 723 817.368 722.4 C 818.968 722.2 820.568 722 822.168 721.8 C 828.268 721 834.368 719.8 840.468 718.1 C 896.168 701.8 930.268 651.4 916.768 605.4 Z M 543.968 410.1 C 654.568 261.4 543.968 224.3 518.068 198.4 C 492.068 172.5 467.868 30.7 594.068 10 C 452.268 155.2 818.768 223.4 543.968 410.1 Z M 411.068 410.1 C 501.668 288.3 411.068 259.4 389.868 238.1 C 368.668 216.9 348.868 100.8 452.168 83.8 C 335.968 202.8 636.168 257.2 411.068 410.1 Z M 846.468 990 C 789.468 990 191.268 990 120.468 990 C 49.568 990 59.868 931.7 59.868 931.7 L 899.968 931.7 C 900.068 931.7 903.468 990 846.468 990 Z"/>
  </g>
  <g style="" transform="matrix(0.067657, 0, 0, 0.067657, -3.811975, 317.441986)">
    <path d="M 855.768 770.1 C 848.268 772.3 840.768 773.9 833.368 775.2 C 831.568 775.5 829.668 775.8 827.868 776.1 C 820.568 777.2 813.268 778 806.068 778.2 C 805.968 778.2 805.968 778.2 805.868 778.2 C 798.368 778.4 791.068 778.2 783.868 777.6 C 782.368 777.5 780.868 777.3 779.368 777.2 C 772.268 776.5 765.268 775.4 758.468 773.9 C 731.568 813 696.268 868.5 649.368 909.6 C 637.968 909.6 354.868 909.6 341.668 909.6 C 177.768 824.8 150.968 593.9 146.568 523.5 C 146.568 522.9 146.368 522.3 146.368 521.6 L 146.368 520.5 C 145.668 508 145.668 500.8 145.668 500.8 L 146.368 500.8 C 146.368 472.2 169.568 441.1 198.168 441.1 L 789.368 441.1 C 814.768 441.1 835.868 467.3 840.268 491.5 C 840.268 491.5 840.268 491.5 840.268 491.5 C 848.268 491.8 856.068 492.6 863.868 493.9 C 864.368 494 864.968 494.1 865.468 494.2 C 880.468 496.8 894.668 501.2 907.768 507.3 C 908.568 507.7 909.468 508.1 910.268 508.5 C 916.468 511.5 922.468 514.8 928.168 518.6 C 928.268 518.7 928.368 518.7 928.468 518.8 C 934.068 522.5 939.268 526.8 944.168 531.2 C 945.168 532.1 946.068 533 946.968 533.9 C 951.468 538.3 955.768 542.9 959.668 547.9 C 959.868 548.1 959.968 548.2 960.168 548.5 C 964.068 553.6 967.368 559 970.368 564.7 C 971.068 566 971.768 567.4 972.468 568.8 C 975.268 574.6 977.768 580.6 979.668 586.9 C 1001.468 661.7 945.968 743.7 855.768 770.1 Z M 310.168 500.9 L 223.568 500.9 C 223.568 500.9 212.368 772 377.268 858.6 C 248.768 607.1 310.168 500.9 310.168 500.9 Z M 916.768 605.4 C 907.368 573.1 876.768 552 840.268 547.7 C 838.168 589.2 826.068 653.3 787.868 721.4 C 790.768 721.9 793.568 722.4 796.568 722.6 C 797.768 722.7 798.968 722.9 800.268 723 C 805.868 723.2 811.668 723 817.368 722.4 C 818.968 722.2 820.568 722 822.168 721.8 C 828.268 721 834.368 719.8 840.468 718.1 C 896.168 701.8 930.268 651.4 916.768 605.4 Z M 543.968 410.1 C 654.568 261.4 543.968 224.3 518.068 198.4 C 492.068 172.5 467.868 30.7 594.068 10 C 452.268 155.2 818.768 223.4 543.968 410.1 Z M 411.068 410.1 C 501.668 288.3 411.068 259.4 389.868 238.1 C 368.668 216.9 348.868 100.8 452.168 83.8 C 335.968 202.8 636.168 257.2 411.068 410.1 Z M 846.468 990 C 789.468 990 191.268 990 120.468 990 C 49.568 990 59.868 931.7 59.868 931.7 L 899.968 931.7 C 900.068 931.7 903.468 990 846.468 990 Z"/>
  </g>
  <g style="" transform="matrix(0.067657, 0, 0, 0.067657, -3.811975, 391.286438)">
    <path d="M 855.768 770.1 C 848.268 772.3 840.768 773.9 833.368 775.2 C 831.568 775.5 829.668 775.8 827.868 776.1 C 820.568 777.2 813.268 778 806.068 778.2 C 805.968 778.2 805.968 778.2 805.868 778.2 C 798.368 778.4 791.068 778.2 783.868 777.6 C 782.368 777.5 780.868 777.3 779.368 777.2 C 772.268 776.5 765.268 775.4 758.468 773.9 C 731.568 813 696.268 868.5 649.368 909.6 C 637.968 909.6 354.868 909.6 341.668 909.6 C 177.768 824.8 150.968 593.9 146.568 523.5 C 146.568 522.9 146.368 522.3 146.368 521.6 L 146.368 520.5 C 145.668 508 145.668 500.8 145.668 500.8 L 146.368 500.8 C 146.368 472.2 169.568 441.1 198.168 441.1 L 789.368 441.1 C 814.768 441.1 835.868 467.3 840.268 491.5 C 840.268 491.5 840.268 491.5 840.268 491.5 C 848.268 491.8 856.068 492.6 863.868 493.9 C 864.368 494 864.968 494.1 865.468 494.2 C 880.468 496.8 894.668 501.2 907.768 507.3 C 908.568 507.7 909.468 508.1 910.268 508.5 C 916.468 511.5 922.468 514.8 928.168 518.6 C 928.268 518.7 928.368 518.7 928.468 518.8 C 934.068 522.5 939.268 526.8 944.168 531.2 C 945.168 532.1 946.068 533 946.968 533.9 C 951.468 538.3 955.768 542.9 959.668 547.9 C 959.868 548.1 959.968 548.2 960.168 548.5 C 964.068 553.6 967.368 559 970.368 564.7 C 971.068 566 971.768 567.4 972.468 568.8 C 975.268 574.6 977.768 580.6 979.668 586.9 C 1001.468 661.7 945.968 743.7 855.768 770.1 Z M 310.168 500.9 L 223.568 500.9 C 223.568 500.9 212.368 772 377.268 858.6 C 248.768 607.1 310.168 500.9 310.168 500.9 Z M 916.768 605.4 C 907.368 573.1 876.768 552 840.268 547.7 C 838.168 589.2 826.068 653.3 787.868 721.4 C 790.768 721.9 793.568 722.4 796.568 722.6 C 797.768 722.7 798.968 722.9 800.268 723 C 805.868 723.2 811.668 723 817.368 722.4 C 818.968 722.2 820.568 722 822.168 721.8 C 828.268 721 834.368 719.8 840.468 718.1 C 896.168 701.8 930.268 651.4 916.768 605.4 Z M 543.968 410.1 C 654.568 261.4 543.968 224.3 518.068 198.4 C 492.068 172.5 467.868 30.7 594.068 10 C 452.268 155.2 818.768 223.4 543.968 410.1 Z M 411.068 410.1 C 501.668 288.3 411.068 259.4 389.868 238.1 C 368.668 216.9 348.868 100.8 452.168 83.8 C 335.968 202.8 636.168 257.2 411.068 410.1 Z M 846.468 990 C 789.468 990 191.268 990 120.468 990 C 49.568 990 59.868 931.7 59.868 931.7 L 899.968 931.7 C 900.068 931.7 903.468 990 846.468 990 Z"/>
  </g>
  <g style="" transform="matrix(0.067657, 0, 0, 0.067657, -3.811975, 465.908813)">
    <path d="M 855.768 770.1 C 848.268 772.3 840.768 773.9 833.368 775.2 C 831.568 775.5 829.668 775.8 827.868 776.1 C 820.568 777.2 813.268 778 806.068 778.2 C 805.968 778.2 805.968 778.2 805.868 778.2 C 798.368 778.4 791.068 778.2 783.868 777.6 C 782.368 777.5 780.868 777.3 779.368 777.2 C 772.268 776.5 765.268 775.4 758.468 773.9 C 731.568 813 696.268 868.5 649.368 909.6 C 637.968 909.6 354.868 909.6 341.668 909.6 C 177.768 824.8 150.968 593.9 146.568 523.5 C 146.568 522.9 146.368 522.3 146.368 521.6 L 146.368 520.5 C 145.668 508 145.668 500.8 145.668 500.8 L 146.368 500.8 C 146.368 472.2 169.568 441.1 198.168 441.1 L 789.368 441.1 C 814.768 441.1 835.868 467.3 840.268 491.5 C 840.268 491.5 840.268 491.5 840.268 491.5 C 848.268 491.8 856.068 492.6 863.868 493.9 C 864.368 494 864.968 494.1 865.468 494.2 C 880.468 496.8 894.668 501.2 907.768 507.3 C 908.568 507.7 909.468 508.1 910.268 508.5 C 916.468 511.5 922.468 514.8 928.168 518.6 C 928.268 518.7 928.368 518.7 928.468 518.8 C 934.068 522.5 939.268 526.8 944.168 531.2 C 945.168 532.1 946.068 533 946.968 533.9 C 951.468 538.3 955.768 542.9 959.668 547.9 C 959.868 548.1 959.968 548.2 960.168 548.5 C 964.068 553.6 967.368 559 970.368 564.7 C 971.068 566 971.768 567.4 972.468 568.8 C 975.268 574.6 977.768 580.6 979.668 586.9 C 1001.468 661.7 945.968 743.7 855.768 770.1 Z M 310.168 500.9 L 223.568 500.9 C 223.568 500.9 212.368 772 377.268 858.6 C 248.768 607.1 310.168 500.9 310.168 500.9 Z M 916.768 605.4 C 907.368 573.1 876.768 552 840.268 547.7 C 838.168 589.2 826.068 653.3 787.868 721.4 C 790.768 721.9 793.568 722.4 796.568 722.6 C 797.768 722.7 798.968 722.9 800.268 723 C 805.868 723.2 811.668 723 817.368 722.4 C 818.968 722.2 820.568 722 822.168 721.8 C 828.268 721 834.368 719.8 840.468 718.1 C 896.168 701.8 930.268 651.4 916.768 605.4 Z M 543.968 410.1 C 654.568 261.4 543.968 224.3 518.068 198.4 C 492.068 172.5 467.868 30.7 594.068 10 C 452.268 155.2 818.768 223.4 543.968 410.1 Z M 411.068 410.1 C 501.668 288.3 411.068 259.4 389.868 238.1 C 368.668 216.9 348.868 100.8 452.168 83.8 C 335.968 202.8 636.168 257.2 411.068 410.1 Z M 846.468 990 C 789.468 990 191.268 990 120.468 990 C 49.568 990 59.868 931.7 59.868 931.7 L 899.968 931.7 C 900.068 931.7 903.468 990 846.468 990 Z"/>
  </g>
  <g style="" transform="matrix(0.067657, 0, 0, 0.067657, -3.811975, 543.221008)">
    <path d="M 855.768 770.1 C 848.268 772.3 840.768 773.9 833.368 775.2 C 831.568 775.5 829.668 775.8 827.868 776.1 C 820.568 777.2 813.268 778 806.068 778.2 C 805.968 778.2 805.968 778.2 805.868 778.2 C 798.368 778.4 791.068 778.2 783.868 777.6 C 782.368 777.5 780.868 777.3 779.368 777.2 C 772.268 776.5 765.268 775.4 758.468 773.9 C 731.568 813 696.268 868.5 649.368 909.6 C 637.968 909.6 354.868 909.6 341.668 909.6 C 177.768 824.8 150.968 593.9 146.568 523.5 C 146.568 522.9 146.368 522.3 146.368 521.6 L 146.368 520.5 C 145.668 508 145.668 500.8 145.668 500.8 L 146.368 500.8 C 146.368 472.2 169.568 441.1 198.168 441.1 L 789.368 441.1 C 814.768 441.1 835.868 467.3 840.268 491.5 C 840.268 491.5 840.268 491.5 840.268 491.5 C 848.268 491.8 856.068 492.6 863.868 493.9 C 864.368 494 864.968 494.1 865.468 494.2 C 880.468 496.8 894.668 501.2 907.768 507.3 C 908.568 507.7 909.468 508.1 910.268 508.5 C 916.468 511.5 922.468 514.8 928.168 518.6 C 928.268 518.7 928.368 518.7 928.468 518.8 C 934.068 522.5 939.268 526.8 944.168 531.2 C 945.168 532.1 946.068 533 946.968 533.9 C 951.468 538.3 955.768 542.9 959.668 547.9 C 959.868 548.1 959.968 548.2 960.168 548.5 C 964.068 553.6 967.368 559 970.368 564.7 C 971.068 566 971.768 567.4 972.468 568.8 C 975.268 574.6 977.768 580.6 979.668 586.9 C 1001.468 661.7 945.968 743.7 855.768 770.1 Z M 310.168 500.9 L 223.568 500.9 C 223.568 500.9 212.368 772 377.268 858.6 C 248.768 607.1 310.168 500.9 310.168 500.9 Z M 916.768 605.4 C 907.368 573.1 876.768 552 840.268 547.7 C 838.168 589.2 826.068 653.3 787.868 721.4 C 790.768 721.9 793.568 722.4 796.568 722.6 C 797.768 722.7 798.968 722.9 800.268 723 C 805.868 723.2 811.668 723 817.368 722.4 C 818.968 722.2 820.568 722 822.168 721.8 C 828.268 721 834.368 719.8 840.468 718.1 C 896.168 701.8 930.268 651.4 916.768 605.4 Z M 543.968 410.1 C 654.568 261.4 543.968 224.3 518.068 198.4 C 492.068 172.5 467.868 30.7 594.068 10 C 452.268 155.2 818.768 223.4 543.968 410.1 Z M 411.068 410.1 C 501.668 288.3 411.068 259.4 389.868 238.1 C 368.668 216.9 348.868 100.8 452.168 83.8 C 335.968 202.8 636.168 257.2 411.068 410.1 Z M 846.468 990 C 789.468 990 191.268 990 120.468 990 C 49.568 990 59.868 931.7 59.868 931.7 L 899.968 931.7 C 900.068 931.7 903.468 990 846.468 990 Z"/>
  </g>
  <g style="" transform="matrix(0.067657, 0, 0, 0.067657, -3.811975, 621.1875)">
    <path d="M 855.768 770.1 C 848.268 772.3 840.768 773.9 833.368 775.2 C 831.568 775.5 829.668 775.8 827.868 776.1 C 820.568 777.2 813.268 778 806.068 778.2 C 805.968 778.2 805.968 778.2 805.868 778.2 C 798.368 778.4 791.068 778.2 783.868 777.6 C 782.368 777.5 780.868 777.3 779.368 777.2 C 772.268 776.5 765.268 775.4 758.468 773.9 C 731.568 813 696.268 868.5 649.368 909.6 C 637.968 909.6 354.868 909.6 341.668 909.6 C 177.768 824.8 150.968 593.9 146.568 523.5 C 146.568 522.9 146.368 522.3 146.368 521.6 L 146.368 520.5 C 145.668 508 145.668 500.8 145.668 500.8 L 146.368 500.8 C 146.368 472.2 169.568 441.1 198.168 441.1 L 789.368 441.1 C 814.768 441.1 835.868 467.3 840.268 491.5 C 840.268 491.5 840.268 491.5 840.268 491.5 C 848.268 491.8 856.068 492.6 863.868 493.9 C 864.368 494 864.968 494.1 865.468 494.2 C 880.468 496.8 894.668 501.2 907.768 507.3 C 908.568 507.7 909.468 508.1 910.268 508.5 C 916.468 511.5 922.468 514.8 928.168 518.6 C 928.268 518.7 928.368 518.7 928.468 518.8 C 934.068 522.5 939.268 526.8 944.168 531.2 C 945.168 532.1 946.068 533 946.968 533.9 C 951.468 538.3 955.768 542.9 959.668 547.9 C 959.868 548.1 959.968 548.2 960.168 548.5 C 964.068 553.6 967.368 559 970.368 564.7 C 971.068 566 971.768 567.4 972.468 568.8 C 975.268 574.6 977.768 580.6 979.668 586.9 C 1001.468 661.7 945.968 743.7 855.768 770.1 Z M 310.168 500.9 L 223.568 500.9 C 223.568 500.9 212.368 772 377.268 858.6 C 248.768 607.1 310.168 500.9 310.168 500.9 Z M 916.768 605.4 C 907.368 573.1 876.768 552 840.268 547.7 C 838.168 589.2 826.068 653.3 787.868 721.4 C 790.768 721.9 793.568 722.4 796.568 722.6 C 797.768 722.7 798.968 722.9 800.268 723 C 805.868 723.2 811.668 723 817.368 722.4 C 818.968 722.2 820.568 722 822.168 721.8 C 828.268 721 834.368 719.8 840.468 718.1 C 896.168 701.8 930.268 651.4 916.768 605.4 Z M 543.968 410.1 C 654.568 261.4 543.968 224.3 518.068 198.4 C 492.068 172.5 467.868 30.7 594.068 10 C 452.268 155.2 818.768 223.4 543.968 410.1 Z M 411.068 410.1 C 501.668 288.3 411.068 259.4 389.868 238.1 C 368.668 216.9 348.868 100.8 452.168 83.8 C 335.968 202.8 636.168 257.2 411.068 410.1 Z M 846.468 990 C 789.468 990 191.268 990 120.468 990 C 49.568 990 59.868 931.7 59.868 931.7 L 899.968 931.7 C 900.068 931.7 903.468 990 846.468 990 Z"/>
  </g>
  <g style="" transform="matrix(0.067657, 0, 0, 0.067657, -3.811975, 699.655579)">
    <path d="M 855.768 770.1 C 848.268 772.3 840.768 773.9 833.368 775.2 C 831.568 775.5 829.668 775.8 827.868 776.1 C 820.568 777.2 813.268 778 806.068 778.2 C 805.968 778.2 805.968 778.2 805.868 778.2 C 798.368 778.4 791.068 778.2 783.868 777.6 C 782.368 777.5 780.868 777.3 779.368 777.2 C 772.268 776.5 765.268 775.4 758.468 773.9 C 731.568 813 696.268 868.5 649.368 909.6 C 637.968 909.6 354.868 909.6 341.668 909.6 C 177.768 824.8 150.968 593.9 146.568 523.5 C 146.568 522.9 146.368 522.3 146.368 521.6 L 146.368 520.5 C 145.668 508 145.668 500.8 145.668 500.8 L 146.368 500.8 C 146.368 472.2 169.568 441.1 198.168 441.1 L 789.368 441.1 C 814.768 441.1 835.868 467.3 840.268 491.5 C 840.268 491.5 840.268 491.5 840.268 491.5 C 848.268 491.8 856.068 492.6 863.868 493.9 C 864.368 494 864.968 494.1 865.468 494.2 C 880.468 496.8 894.668 501.2 907.768 507.3 C 908.568 507.7 909.468 508.1 910.268 508.5 C 916.468 511.5 922.468 514.8 928.168 518.6 C 928.268 518.7 928.368 518.7 928.468 518.8 C 934.068 522.5 939.268 526.8 944.168 531.2 C 945.168 532.1 946.068 533 946.968 533.9 C 951.468 538.3 955.768 542.9 959.668 547.9 C 959.868 548.1 959.968 548.2 960.168 548.5 C 964.068 553.6 967.368 559 970.368 564.7 C 971.068 566 971.768 567.4 972.468 568.8 C 975.268 574.6 977.768 580.6 979.668 586.9 C 1001.468 661.7 945.968 743.7 855.768 770.1 Z M 310.168 500.9 L 223.568 500.9 C 223.568 500.9 212.368 772 377.268 858.6 C 248.768 607.1 310.168 500.9 310.168 500.9 Z M 916.768 605.4 C 907.368 573.1 876.768 552 840.268 547.7 C 838.168 589.2 826.068 653.3 787.868 721.4 C 790.768 721.9 793.568 722.4 796.568 722.6 C 797.768 722.7 798.968 722.9 800.268 723 C 805.868 723.2 811.668 723 817.368 722.4 C 818.968 722.2 820.568 722 822.168 721.8 C 828.268 721 834.368 719.8 840.468 718.1 C 896.168 701.8 930.268 651.4 916.768 605.4 Z M 543.968 410.1 C 654.568 261.4 543.968 224.3 518.068 198.4 C 492.068 172.5 467.868 30.7 594.068 10 C 452.268 155.2 818.768 223.4 543.968 410.1 Z M 411.068 410.1 C 501.668 288.3 411.068 259.4 389.868 238.1 C 368.668 216.9 348.868 100.8 452.168 83.8 C 335.968 202.8 636.168 257.2 411.068 410.1 Z M 846.468 990 C 789.468 990 191.268 990 120.468 990 C 49.568 990 59.868 931.7 59.868 931.7 L 899.968 931.7 C 900.068 931.7 903.468 990 846.468 990 Z"/>
  </g>
  <g style="" transform="matrix(0.067657, 0, 0, 0.067657, -3.811975, 778.901489)">
    <path d="M 855.768 770.1 C 848.268 772.3 840.768 773.9 833.368 775.2 C 831.568 775.5 829.668 775.8 827.868 776.1 C 820.568 777.2 813.268 778 806.068 778.2 C 805.968 778.2 805.968 778.2 805.868 778.2 C 798.368 778.4 791.068 778.2 783.868 777.6 C 782.368 777.5 780.868 777.3 779.368 777.2 C 772.268 776.5 765.268 775.4 758.468 773.9 C 731.568 813 696.268 868.5 649.368 909.6 C 637.968 909.6 354.868 909.6 341.668 909.6 C 177.768 824.8 150.968 593.9 146.568 523.5 C 146.568 522.9 146.368 522.3 146.368 521.6 L 146.368 520.5 C 145.668 508 145.668 500.8 145.668 500.8 L 146.368 500.8 C 146.368 472.2 169.568 441.1 198.168 441.1 L 789.368 441.1 C 814.768 441.1 835.868 467.3 840.268 491.5 C 840.268 491.5 840.268 491.5 840.268 491.5 C 848.268 491.8 856.068 492.6 863.868 493.9 C 864.368 494 864.968 494.1 865.468 494.2 C 880.468 496.8 894.668 501.2 907.768 507.3 C 908.568 507.7 909.468 508.1 910.268 508.5 C 916.468 511.5 922.468 514.8 928.168 518.6 C 928.268 518.7 928.368 518.7 928.468 518.8 C 934.068 522.5 939.268 526.8 944.168 531.2 C 945.168 532.1 946.068 533 946.968 533.9 C 951.468 538.3 955.768 542.9 959.668 547.9 C 959.868 548.1 959.968 548.2 960.168 548.5 C 964.068 553.6 967.368 559 970.368 564.7 C 971.068 566 971.768 567.4 972.468 568.8 C 975.268 574.6 977.768 580.6 979.668 586.9 C 1001.468 661.7 945.968 743.7 855.768 770.1 Z M 310.168 500.9 L 223.568 500.9 C 223.568 500.9 212.368 772 377.268 858.6 C 248.768 607.1 310.168 500.9 310.168 500.9 Z M 916.768 605.4 C 907.368 573.1 876.768 552 840.268 547.7 C 838.168 589.2 826.068 653.3 787.868 721.4 C 790.768 721.9 793.568 722.4 796.568 722.6 C 797.768 722.7 798.968 722.9 800.268 723 C 805.868 723.2 811.668 723 817.368 722.4 C 818.968 722.2 820.568 722 822.168 721.8 C 828.268 721 834.368 719.8 840.468 718.1 C 896.168 701.8 930.268 651.4 916.768 605.4 Z M 543.968 410.1 C 654.568 261.4 543.968 224.3 518.068 198.4 C 492.068 172.5 467.868 30.7 594.068 10 C 452.268 155.2 818.768 223.4 543.968 410.1 Z M 411.068 410.1 C 501.668 288.3 411.068 259.4 389.868 238.1 C 368.668 216.9 348.868 100.8 452.168 83.8 C 335.968 202.8 636.168 257.2 411.068 410.1 Z M 846.468 990 C 789.468 990 191.268 990 120.468 990 C 49.568 990 59.868 931.7 59.868 931.7 L 899.968 931.7 C 900.068 931.7 903.468 990 846.468 990 Z"/>
  </g>
  <g style="" transform="matrix(0.067657, 0, 0, 0.067657, -3.811975, 856.213745)">
    <path d="M 855.768 770.1 C 848.268 772.3 840.768 773.9 833.368 775.2 C 831.568 775.5 829.668 775.8 827.868 776.1 C 820.568 777.2 813.268 778 806.068 778.2 C 805.968 778.2 805.968 778.2 805.868 778.2 C 798.368 778.4 791.068 778.2 783.868 777.6 C 782.368 777.5 780.868 777.3 779.368 777.2 C 772.268 776.5 765.268 775.4 758.468 773.9 C 731.568 813 696.268 868.5 649.368 909.6 C 637.968 909.6 354.868 909.6 341.668 909.6 C 177.768 824.8 150.968 593.9 146.568 523.5 C 146.568 522.9 146.368 522.3 146.368 521.6 L 146.368 520.5 C 145.668 508 145.668 500.8 145.668 500.8 L 146.368 500.8 C 146.368 472.2 169.568 441.1 198.168 441.1 L 789.368 441.1 C 814.768 441.1 835.868 467.3 840.268 491.5 C 840.268 491.5 840.268 491.5 840.268 491.5 C 848.268 491.8 856.068 492.6 863.868 493.9 C 864.368 494 864.968 494.1 865.468 494.2 C 880.468 496.8 894.668 501.2 907.768 507.3 C 908.568 507.7 909.468 508.1 910.268 508.5 C 916.468 511.5 922.468 514.8 928.168 518.6 C 928.268 518.7 928.368 518.7 928.468 518.8 C 934.068 522.5 939.268 526.8 944.168 531.2 C 945.168 532.1 946.068 533 946.968 533.9 C 951.468 538.3 955.768 542.9 959.668 547.9 C 959.868 548.1 959.968 548.2 960.168 548.5 C 964.068 553.6 967.368 559 970.368 564.7 C 971.068 566 971.768 567.4 972.468 568.8 C 975.268 574.6 977.768 580.6 979.668 586.9 C 1001.468 661.7 945.968 743.7 855.768 770.1 Z M 310.168 500.9 L 223.568 500.9 C 223.568 500.9 212.368 772 377.268 858.6 C 248.768 607.1 310.168 500.9 310.168 500.9 Z M 916.768 605.4 C 907.368 573.1 876.768 552 840.268 547.7 C 838.168 589.2 826.068 653.3 787.868 721.4 C 790.768 721.9 793.568 722.4 796.568 722.6 C 797.768 722.7 798.968 722.9 800.268 723 C 805.868 723.2 811.668 723 817.368 722.4 C 818.968 722.2 820.568 722 822.168 721.8 C 828.268 721 834.368 719.8 840.468 718.1 C 896.168 701.8 930.268 651.4 916.768 605.4 Z M 543.968 410.1 C 654.568 261.4 543.968 224.3 518.068 198.4 C 492.068 172.5 467.868 30.7 594.068 10 C 452.268 155.2 818.768 223.4 543.968 410.1 Z M 411.068 410.1 C 501.668 288.3 411.068 259.4 389.868 238.1 C 368.668 216.9 348.868 100.8 452.168 83.8 C 335.968 202.8 636.168 257.2 411.068 410.1 Z M 846.468 990 C 789.468 990 191.268 990 120.468 990 C 49.568 990 59.868 931.7 59.868 931.7 L 899.968 931.7 C 900.068 931.7 903.468 990 846.468 990 Z"/>
  </g>
  <g style="" transform="matrix(0.067657, 0, 0, 0.067657, 931.397034, 77.587952)">
    <path d="M 855.768 770.1 C 848.268 772.3 840.768 773.9 833.368 775.2 C 831.568 775.5 829.668 775.8 827.868 776.1 C 820.568 777.2 813.268 778 806.068 778.2 C 805.968 778.2 805.968 778.2 805.868 778.2 C 798.368 778.4 791.068 778.2 783.868 777.6 C 782.368 777.5 780.868 777.3 779.368 777.2 C 772.268 776.5 765.268 775.4 758.468 773.9 C 731.568 813 696.268 868.5 649.368 909.6 C 637.968 909.6 354.868 909.6 341.668 909.6 C 177.768 824.8 150.968 593.9 146.568 523.5 C 146.568 522.9 146.368 522.3 146.368 521.6 L 146.368 520.5 C 145.668 508 145.668 500.8 145.668 500.8 L 146.368 500.8 C 146.368 472.2 169.568 441.1 198.168 441.1 L 789.368 441.1 C 814.768 441.1 835.868 467.3 840.268 491.5 C 840.268 491.5 840.268 491.5 840.268 491.5 C 848.268 491.8 856.068 492.6 863.868 493.9 C 864.368 494 864.968 494.1 865.468 494.2 C 880.468 496.8 894.668 501.2 907.768 507.3 C 908.568 507.7 909.468 508.1 910.268 508.5 C 916.468 511.5 922.468 514.8 928.168 518.6 C 928.268 518.7 928.368 518.7 928.468 518.8 C 934.068 522.5 939.268 526.8 944.168 531.2 C 945.168 532.1 946.068 533 946.968 533.9 C 951.468 538.3 955.768 542.9 959.668 547.9 C 959.868 548.1 959.968 548.2 960.168 548.5 C 964.068 553.6 967.368 559 970.368 564.7 C 971.068 566 971.768 567.4 972.468 568.8 C 975.268 574.6 977.768 580.6 979.668 586.9 C 1001.468 661.7 945.968 743.7 855.768 770.1 Z M 310.168 500.9 L 223.568 500.9 C 223.568 500.9 212.368 772 377.268 858.6 C 248.768 607.1 310.168 500.9 310.168 500.9 Z M 916.768 605.4 C 907.368 573.1 876.768 552 840.268 547.7 C 838.168 589.2 826.068 653.3 787.868 721.4 C 790.768 721.9 793.568 722.4 796.568 722.6 C 797.768 722.7 798.968 722.9 800.268 723 C 805.868 723.2 811.668 723 817.368 722.4 C 818.968 722.2 820.568 722 822.168 721.8 C 828.268 721 834.368 719.8 840.468 718.1 C 896.168 701.8 930.268 651.4 916.768 605.4 Z M 543.968 410.1 C 654.568 261.4 543.968 224.3 518.068 198.4 C 492.068 172.5 467.868 30.7 594.068 10 C 452.268 155.2 818.768 223.4 543.968 410.1 Z M 411.068 410.1 C 501.668 288.3 411.068 259.4 389.868 238.1 C 368.668 216.9 348.868 100.8 452.168 83.8 C 335.968 202.8 636.168 257.2 411.068 410.1 Z M 846.468 990 C 789.468 990 191.268 990 120.468 990 C 49.568 990 59.868 931.7 59.868 931.7 L 899.968 931.7 C 900.068 931.7 903.468 990 846.468 990 Z"/>
  </g>
  <g style="" transform="matrix(0.067657, 0, 0, 0.067657, 931.397034, 159.145721)">
    <path d="M 855.768 770.1 C 848.268 772.3 840.768 773.9 833.368 775.2 C 831.568 775.5 829.668 775.8 827.868 776.1 C 820.568 777.2 813.268 778 806.068 778.2 C 805.968 778.2 805.968 778.2 805.868 778.2 C 798.368 778.4 791.068 778.2 783.868 777.6 C 782.368 777.5 780.868 777.3 779.368 777.2 C 772.268 776.5 765.268 775.4 758.468 773.9 C 731.568 813 696.268 868.5 649.368 909.6 C 637.968 909.6 354.868 909.6 341.668 909.6 C 177.768 824.8 150.968 593.9 146.568 523.5 C 146.568 522.9 146.368 522.3 146.368 521.6 L 146.368 520.5 C 145.668 508 145.668 500.8 145.668 500.8 L 146.368 500.8 C 146.368 472.2 169.568 441.1 198.168 441.1 L 789.368 441.1 C 814.768 441.1 835.868 467.3 840.268 491.5 C 840.268 491.5 840.268 491.5 840.268 491.5 C 848.268 491.8 856.068 492.6 863.868 493.9 C 864.368 494 864.968 494.1 865.468 494.2 C 880.468 496.8 894.668 501.2 907.768 507.3 C 908.568 507.7 909.468 508.1 910.268 508.5 C 916.468 511.5 922.468 514.8 928.168 518.6 C 928.268 518.7 928.368 518.7 928.468 518.8 C 934.068 522.5 939.268 526.8 944.168 531.2 C 945.168 532.1 946.068 533 946.968 533.9 C 951.468 538.3 955.768 542.9 959.668 547.9 C 959.868 548.1 959.968 548.2 960.168 548.5 C 964.068 553.6 967.368 559 970.368 564.7 C 971.068 566 971.768 567.4 972.468 568.8 C 975.268 574.6 977.768 580.6 979.668 586.9 C 1001.468 661.7 945.968 743.7 855.768 770.1 Z M 310.168 500.9 L 223.568 500.9 C 223.568 500.9 212.368 772 377.268 858.6 C 248.768 607.1 310.168 500.9 310.168 500.9 Z M 916.768 605.4 C 907.368 573.1 876.768 552 840.268 547.7 C 838.168 589.2 826.068 653.3 787.868 721.4 C 790.768 721.9 793.568 722.4 796.568 722.6 C 797.768 722.7 798.968 722.9 800.268 723 C 805.868 723.2 811.668 723 817.368 722.4 C 818.968 722.2 820.568 722 822.168 721.8 C 828.268 721 834.368 719.8 840.468 718.1 C 896.168 701.8 930.268 651.4 916.768 605.4 Z M 543.968 410.1 C 654.568 261.4 543.968 224.3 518.068 198.4 C 492.068 172.5 467.868 30.7 594.068 10 C 452.268 155.2 818.768 223.4 543.968 410.1 Z M 411.068 410.1 C 501.668 288.3 411.068 259.4 389.868 238.1 C 368.668 216.9 348.868 100.8 452.168 83.8 C 335.968 202.8 636.168 257.2 411.068 410.1 Z M 846.468 990 C 789.468 990 191.268 990 120.468 990 C 49.568 990 59.868 931.7 59.868 931.7 L 899.968 931.7 C 900.068 931.7 903.468 990 846.468 990 Z"/>
  </g>
  <g style="" transform="matrix(0.067657, 0, 0, 0.067657, 931.397034, 237.6138)">
    <path d="M 855.768 770.1 C 848.268 772.3 840.768 773.9 833.368 775.2 C 831.568 775.5 829.668 775.8 827.868 776.1 C 820.568 777.2 813.268 778 806.068 778.2 C 805.968 778.2 805.968 778.2 805.868 778.2 C 798.368 778.4 791.068 778.2 783.868 777.6 C 782.368 777.5 780.868 777.3 779.368 777.2 C 772.268 776.5 765.268 775.4 758.468 773.9 C 731.568 813 696.268 868.5 649.368 909.6 C 637.968 909.6 354.868 909.6 341.668 909.6 C 177.768 824.8 150.968 593.9 146.568 523.5 C 146.568 522.9 146.368 522.3 146.368 521.6 L 146.368 520.5 C 145.668 508 145.668 500.8 145.668 500.8 L 146.368 500.8 C 146.368 472.2 169.568 441.1 198.168 441.1 L 789.368 441.1 C 814.768 441.1 835.868 467.3 840.268 491.5 C 840.268 491.5 840.268 491.5 840.268 491.5 C 848.268 491.8 856.068 492.6 863.868 493.9 C 864.368 494 864.968 494.1 865.468 494.2 C 880.468 496.8 894.668 501.2 907.768 507.3 C 908.568 507.7 909.468 508.1 910.268 508.5 C 916.468 511.5 922.468 514.8 928.168 518.6 C 928.268 518.7 928.368 518.7 928.468 518.8 C 934.068 522.5 939.268 526.8 944.168 531.2 C 945.168 532.1 946.068 533 946.968 533.9 C 951.468 538.3 955.768 542.9 959.668 547.9 C 959.868 548.1 959.968 548.2 960.168 548.5 C 964.068 553.6 967.368 559 970.368 564.7 C 971.068 566 971.768 567.4 972.468 568.8 C 975.268 574.6 977.768 580.6 979.668 586.9 C 1001.468 661.7 945.968 743.7 855.768 770.1 Z M 310.168 500.9 L 223.568 500.9 C 223.568 500.9 212.368 772 377.268 858.6 C 248.768 607.1 310.168 500.9 310.168 500.9 Z M 916.768 605.4 C 907.368 573.1 876.768 552 840.268 547.7 C 838.168 589.2 826.068 653.3 787.868 721.4 C 790.768 721.9 793.568 722.4 796.568 722.6 C 797.768 722.7 798.968 722.9 800.268 723 C 805.868 723.2 811.668 723 817.368 722.4 C 818.968 722.2 820.568 722 822.168 721.8 C 828.268 721 834.368 719.8 840.468 718.1 C 896.168 701.8 930.268 651.4 916.768 605.4 Z M 543.968 410.1 C 654.568 261.4 543.968 224.3 518.068 198.4 C 492.068 172.5 467.868 30.7 594.068 10 C 452.268 155.2 818.768 223.4 543.968 410.1 Z M 411.068 410.1 C 501.668 288.3 411.068 259.4 389.868 238.1 C 368.668 216.9 348.868 100.8 452.168 83.8 C 335.968 202.8 636.168 257.2 411.068 410.1 Z M 846.468 990 C 789.468 990 191.268 990 120.468 990 C 49.568 990 59.868 931.7 59.868 931.7 L 899.968 931.7 C 900.068 931.7 903.468 990 846.468 990 Z"/>
  </g>
  <g style="" transform="matrix(0.067657, 0, 0, 0.067657, 931.397034, 317.634033)">
    <path d="M 855.768 770.1 C 848.268 772.3 840.768 773.9 833.368 775.2 C 831.568 775.5 829.668 775.8 827.868 776.1 C 820.568 777.2 813.268 778 806.068 778.2 C 805.968 778.2 805.968 778.2 805.868 778.2 C 798.368 778.4 791.068 778.2 783.868 777.6 C 782.368 777.5 780.868 777.3 779.368 777.2 C 772.268 776.5 765.268 775.4 758.468 773.9 C 731.568 813 696.268 868.5 649.368 909.6 C 637.968 909.6 354.868 909.6 341.668 909.6 C 177.768 824.8 150.968 593.9 146.568 523.5 C 146.568 522.9 146.368 522.3 146.368 521.6 L 146.368 520.5 C 145.668 508 145.668 500.8 145.668 500.8 L 146.368 500.8 C 146.368 472.2 169.568 441.1 198.168 441.1 L 789.368 441.1 C 814.768 441.1 835.868 467.3 840.268 491.5 C 840.268 491.5 840.268 491.5 840.268 491.5 C 848.268 491.8 856.068 492.6 863.868 493.9 C 864.368 494 864.968 494.1 865.468 494.2 C 880.468 496.8 894.668 501.2 907.768 507.3 C 908.568 507.7 909.468 508.1 910.268 508.5 C 916.468 511.5 922.468 514.8 928.168 518.6 C 928.268 518.7 928.368 518.7 928.468 518.8 C 934.068 522.5 939.268 526.8 944.168 531.2 C 945.168 532.1 946.068 533 946.968 533.9 C 951.468 538.3 955.768 542.9 959.668 547.9 C 959.868 548.1 959.968 548.2 960.168 548.5 C 964.068 553.6 967.368 559 970.368 564.7 C 971.068 566 971.768 567.4 972.468 568.8 C 975.268 574.6 977.768 580.6 979.668 586.9 C 1001.468 661.7 945.968 743.7 855.768 770.1 Z M 310.168 500.9 L 223.568 500.9 C 223.568 500.9 212.368 772 377.268 858.6 C 248.768 607.1 310.168 500.9 310.168 500.9 Z M 916.768 605.4 C 907.368 573.1 876.768 552 840.268 547.7 C 838.168 589.2 826.068 653.3 787.868 721.4 C 790.768 721.9 793.568 722.4 796.568 722.6 C 797.768 722.7 798.968 722.9 800.268 723 C 805.868 723.2 811.668 723 817.368 722.4 C 818.968 722.2 820.568 722 822.168 721.8 C 828.268 721 834.368 719.8 840.468 718.1 C 896.168 701.8 930.268 651.4 916.768 605.4 Z M 543.968 410.1 C 654.568 261.4 543.968 224.3 518.068 198.4 C 492.068 172.5 467.868 30.7 594.068 10 C 452.268 155.2 818.768 223.4 543.968 410.1 Z M 411.068 410.1 C 501.668 288.3 411.068 259.4 389.868 238.1 C 368.668 216.9 348.868 100.8 452.168 83.8 C 335.968 202.8 636.168 257.2 411.068 410.1 Z M 846.468 990 C 789.468 990 191.268 990 120.468 990 C 49.568 990 59.868 931.7 59.868 931.7 L 899.968 931.7 C 900.068 931.7 903.468 990 846.468 990 Z"/>
  </g>
  <g style="" transform="matrix(0.067657, 0, 0, 0.067657, 931.397034, 391.478516)">
    <path d="M 855.768 770.1 C 848.268 772.3 840.768 773.9 833.368 775.2 C 831.568 775.5 829.668 775.8 827.868 776.1 C 820.568 777.2 813.268 778 806.068 778.2 C 805.968 778.2 805.968 778.2 805.868 778.2 C 798.368 778.4 791.068 778.2 783.868 777.6 C 782.368 777.5 780.868 777.3 779.368 777.2 C 772.268 776.5 765.268 775.4 758.468 773.9 C 731.568 813 696.268 868.5 649.368 909.6 C 637.968 909.6 354.868 909.6 341.668 909.6 C 177.768 824.8 150.968 593.9 146.568 523.5 C 146.568 522.9 146.368 522.3 146.368 521.6 L 146.368 520.5 C 145.668 508 145.668 500.8 145.668 500.8 L 146.368 500.8 C 146.368 472.2 169.568 441.1 198.168 441.1 L 789.368 441.1 C 814.768 441.1 835.868 467.3 840.268 491.5 C 840.268 491.5 840.268 491.5 840.268 491.5 C 848.268 491.8 856.068 492.6 863.868 493.9 C 864.368 494 864.968 494.1 865.468 494.2 C 880.468 496.8 894.668 501.2 907.768 507.3 C 908.568 507.7 909.468 508.1 910.268 508.5 C 916.468 511.5 922.468 514.8 928.168 518.6 C 928.268 518.7 928.368 518.7 928.468 518.8 C 934.068 522.5 939.268 526.8 944.168 531.2 C 945.168 532.1 946.068 533 946.968 533.9 C 951.468 538.3 955.768 542.9 959.668 547.9 C 959.868 548.1 959.968 548.2 960.168 548.5 C 964.068 553.6 967.368 559 970.368 564.7 C 971.068 566 971.768 567.4 972.468 568.8 C 975.268 574.6 977.768 580.6 979.668 586.9 C 1001.468 661.7 945.968 743.7 855.768 770.1 Z M 310.168 500.9 L 223.568 500.9 C 223.568 500.9 212.368 772 377.268 858.6 C 248.768 607.1 310.168 500.9 310.168 500.9 Z M 916.768 605.4 C 907.368 573.1 876.768 552 840.268 547.7 C 838.168 589.2 826.068 653.3 787.868 721.4 C 790.768 721.9 793.568 722.4 796.568 722.6 C 797.768 722.7 798.968 722.9 800.268 723 C 805.868 723.2 811.668 723 817.368 722.4 C 818.968 722.2 820.568 722 822.168 721.8 C 828.268 721 834.368 719.8 840.468 718.1 C 896.168 701.8 930.268 651.4 916.768 605.4 Z M 543.968 410.1 C 654.568 261.4 543.968 224.3 518.068 198.4 C 492.068 172.5 467.868 30.7 594.068 10 C 452.268 155.2 818.768 223.4 543.968 410.1 Z M 411.068 410.1 C 501.668 288.3 411.068 259.4 389.868 238.1 C 368.668 216.9 348.868 100.8 452.168 83.8 C 335.968 202.8 636.168 257.2 411.068 410.1 Z M 846.468 990 C 789.468 990 191.268 990 120.468 990 C 49.568 990 59.868 931.7 59.868 931.7 L 899.968 931.7 C 900.068 931.7 903.468 990 846.468 990 Z"/>
  </g>
  <g style="" transform="matrix(0.067657, 0, 0, 0.067657, 931.397034, 466.100891)">
    <path d="M 855.768 770.1 C 848.268 772.3 840.768 773.9 833.368 775.2 C 831.568 775.5 829.668 775.8 827.868 776.1 C 820.568 777.2 813.268 778 806.068 778.2 C 805.968 778.2 805.968 778.2 805.868 778.2 C 798.368 778.4 791.068 778.2 783.868 777.6 C 782.368 777.5 780.868 777.3 779.368 777.2 C 772.268 776.5 765.268 775.4 758.468 773.9 C 731.568 813 696.268 868.5 649.368 909.6 C 637.968 909.6 354.868 909.6 341.668 909.6 C 177.768 824.8 150.968 593.9 146.568 523.5 C 146.568 522.9 146.368 522.3 146.368 521.6 L 146.368 520.5 C 145.668 508 145.668 500.8 145.668 500.8 L 146.368 500.8 C 146.368 472.2 169.568 441.1 198.168 441.1 L 789.368 441.1 C 814.768 441.1 835.868 467.3 840.268 491.5 C 840.268 491.5 840.268 491.5 840.268 491.5 C 848.268 491.8 856.068 492.6 863.868 493.9 C 864.368 494 864.968 494.1 865.468 494.2 C 880.468 496.8 894.668 501.2 907.768 507.3 C 908.568 507.7 909.468 508.1 910.268 508.5 C 916.468 511.5 922.468 514.8 928.168 518.6 C 928.268 518.7 928.368 518.7 928.468 518.8 C 934.068 522.5 939.268 526.8 944.168 531.2 C 945.168 532.1 946.068 533 946.968 533.9 C 951.468 538.3 955.768 542.9 959.668 547.9 C 959.868 548.1 959.968 548.2 960.168 548.5 C 964.068 553.6 967.368 559 970.368 564.7 C 971.068 566 971.768 567.4 972.468 568.8 C 975.268 574.6 977.768 580.6 979.668 586.9 C 1001.468 661.7 945.968 743.7 855.768 770.1 Z M 310.168 500.9 L 223.568 500.9 C 223.568 500.9 212.368 772 377.268 858.6 C 248.768 607.1 310.168 500.9 310.168 500.9 Z M 916.768 605.4 C 907.368 573.1 876.768 552 840.268 547.7 C 838.168 589.2 826.068 653.3 787.868 721.4 C 790.768 721.9 793.568 722.4 796.568 722.6 C 797.768 722.7 798.968 722.9 800.268 723 C 805.868 723.2 811.668 723 817.368 722.4 C 818.968 722.2 820.568 722 822.168 721.8 C 828.268 721 834.368 719.8 840.468 718.1 C 896.168 701.8 930.268 651.4 916.768 605.4 Z M 543.968 410.1 C 654.568 261.4 543.968 224.3 518.068 198.4 C 492.068 172.5 467.868 30.7 594.068 10 C 452.268 155.2 818.768 223.4 543.968 410.1 Z M 411.068 410.1 C 501.668 288.3 411.068 259.4 389.868 238.1 C 368.668 216.9 348.868 100.8 452.168 83.8 C 335.968 202.8 636.168 257.2 411.068 410.1 Z M 846.468 990 C 789.468 990 191.268 990 120.468 990 C 49.568 990 59.868 931.7 59.868 931.7 L 899.968 931.7 C 900.068 931.7 903.468 990 846.468 990 Z"/>
  </g>
  <g style="" transform="matrix(0.067657, 0, 0, 0.067657, 929.085144, 541.876038)">
    <path d="M 855.768 770.1 C 848.268 772.3 840.768 773.9 833.368 775.2 C 831.568 775.5 829.668 775.8 827.868 776.1 C 820.568 777.2 813.268 778 806.068 778.2 C 805.968 778.2 805.968 778.2 805.868 778.2 C 798.368 778.4 791.068 778.2 783.868 777.6 C 782.368 777.5 780.868 777.3 779.368 777.2 C 772.268 776.5 765.268 775.4 758.468 773.9 C 731.568 813 696.268 868.5 649.368 909.6 C 637.968 909.6 354.868 909.6 341.668 909.6 C 177.768 824.8 150.968 593.9 146.568 523.5 C 146.568 522.9 146.368 522.3 146.368 521.6 L 146.368 520.5 C 145.668 508 145.668 500.8 145.668 500.8 L 146.368 500.8 C 146.368 472.2 169.568 441.1 198.168 441.1 L 789.368 441.1 C 814.768 441.1 835.868 467.3 840.268 491.5 C 840.268 491.5 840.268 491.5 840.268 491.5 C 848.268 491.8 856.068 492.6 863.868 493.9 C 864.368 494 864.968 494.1 865.468 494.2 C 880.468 496.8 894.668 501.2 907.768 507.3 C 908.568 507.7 909.468 508.1 910.268 508.5 C 916.468 511.5 922.468 514.8 928.168 518.6 C 928.268 518.7 928.368 518.7 928.468 518.8 C 934.068 522.5 939.268 526.8 944.168 531.2 C 945.168 532.1 946.068 533 946.968 533.9 C 951.468 538.3 955.768 542.9 959.668 547.9 C 959.868 548.1 959.968 548.2 960.168 548.5 C 964.068 553.6 967.368 559 970.368 564.7 C 971.068 566 971.768 567.4 972.468 568.8 C 975.268 574.6 977.768 580.6 979.668 586.9 C 1001.468 661.7 945.968 743.7 855.768 770.1 Z M 310.168 500.9 L 223.568 500.9 C 223.568 500.9 212.368 772 377.268 858.6 C 248.768 607.1 310.168 500.9 310.168 500.9 Z M 916.768 605.4 C 907.368 573.1 876.768 552 840.268 547.7 C 838.168 589.2 826.068 653.3 787.868 721.4 C 790.768 721.9 793.568 722.4 796.568 722.6 C 797.768 722.7 798.968 722.9 800.268 723 C 805.868 723.2 811.668 723 817.368 722.4 C 818.968 722.2 820.568 722 822.168 721.8 C 828.268 721 834.368 719.8 840.468 718.1 C 896.168 701.8 930.268 651.4 916.768 605.4 Z M 543.968 410.1 C 654.568 261.4 543.968 224.3 518.068 198.4 C 492.068 172.5 467.868 30.7 594.068 10 C 452.268 155.2 818.768 223.4 543.968 410.1 Z M 411.068 410.1 C 501.668 288.3 411.068 259.4 389.868 238.1 C 368.668 216.9 348.868 100.8 452.168 83.8 C 335.968 202.8 636.168 257.2 411.068 410.1 Z M 846.468 990 C 789.468 990 191.268 990 120.468 990 C 49.568 990 59.868 931.7 59.868 931.7 L 899.968 931.7 C 900.068 931.7 903.468 990 846.468 990 Z"/>
  </g>
  <g style="" transform="matrix(0.067657, 0, 0, 0.067657, 929.085144, 619.842529)">
    <path d="M 855.768 770.1 C 848.268 772.3 840.768 773.9 833.368 775.2 C 831.568 775.5 829.668 775.8 827.868 776.1 C 820.568 777.2 813.268 778 806.068 778.2 C 805.968 778.2 805.968 778.2 805.868 778.2 C 798.368 778.4 791.068 778.2 783.868 777.6 C 782.368 777.5 780.868 777.3 779.368 777.2 C 772.268 776.5 765.268 775.4 758.468 773.9 C 731.568 813 696.268 868.5 649.368 909.6 C 637.968 909.6 354.868 909.6 341.668 909.6 C 177.768 824.8 150.968 593.9 146.568 523.5 C 146.568 522.9 146.368 522.3 146.368 521.6 L 146.368 520.5 C 145.668 508 145.668 500.8 145.668 500.8 L 146.368 500.8 C 146.368 472.2 169.568 441.1 198.168 441.1 L 789.368 441.1 C 814.768 441.1 835.868 467.3 840.268 491.5 C 840.268 491.5 840.268 491.5 840.268 491.5 C 848.268 491.8 856.068 492.6 863.868 493.9 C 864.368 494 864.968 494.1 865.468 494.2 C 880.468 496.8 894.668 501.2 907.768 507.3 C 908.568 507.7 909.468 508.1 910.268 508.5 C 916.468 511.5 922.468 514.8 928.168 518.6 C 928.268 518.7 928.368 518.7 928.468 518.8 C 934.068 522.5 939.268 526.8 944.168 531.2 C 945.168 532.1 946.068 533 946.968 533.9 C 951.468 538.3 955.768 542.9 959.668 547.9 C 959.868 548.1 959.968 548.2 960.168 548.5 C 964.068 553.6 967.368 559 970.368 564.7 C 971.068 566 971.768 567.4 972.468 568.8 C 975.268 574.6 977.768 580.6 979.668 586.9 C 1001.468 661.7 945.968 743.7 855.768 770.1 Z M 310.168 500.9 L 223.568 500.9 C 223.568 500.9 212.368 772 377.268 858.6 C 248.768 607.1 310.168 500.9 310.168 500.9 Z M 916.768 605.4 C 907.368 573.1 876.768 552 840.268 547.7 C 838.168 589.2 826.068 653.3 787.868 721.4 C 790.768 721.9 793.568 722.4 796.568 722.6 C 797.768 722.7 798.968 722.9 800.268 723 C 805.868 723.2 811.668 723 817.368 722.4 C 818.968 722.2 820.568 722 822.168 721.8 C 828.268 721 834.368 719.8 840.468 718.1 C 896.168 701.8 930.268 651.4 916.768 605.4 Z M 543.968 410.1 C 654.568 261.4 543.968 224.3 518.068 198.4 C 492.068 172.5 467.868 30.7 594.068 10 C 452.268 155.2 818.768 223.4 543.968 410.1 Z M 411.068 410.1 C 501.668 288.3 411.068 259.4 389.868 238.1 C 368.668 216.9 348.868 100.8 452.168 83.8 C 335.968 202.8 636.168 257.2 411.068 410.1 Z M 846.468 990 C 789.468 990 191.268 990 120.468 990 C 49.568 990 59.868 931.7 59.868 931.7 L 899.968 931.7 C 900.068 931.7 903.468 990 846.468 990 Z"/>
  </g>
  <g style="" transform="matrix(0.067657, 0, 0, 0.067657, 929.085144, 698.310608)">
    <path d="M 855.768 770.1 C 848.268 772.3 840.768 773.9 833.368 775.2 C 831.568 775.5 829.668 775.8 827.868 776.1 C 820.568 777.2 813.268 778 806.068 778.2 C 805.968 778.2 805.968 778.2 805.868 778.2 C 798.368 778.4 791.068 778.2 783.868 777.6 C 782.368 777.5 780.868 777.3 779.368 777.2 C 772.268 776.5 765.268 775.4 758.468 773.9 C 731.568 813 696.268 868.5 649.368 909.6 C 637.968 909.6 354.868 909.6 341.668 909.6 C 177.768 824.8 150.968 593.9 146.568 523.5 C 146.568 522.9 146.368 522.3 146.368 521.6 L 146.368 520.5 C 145.668 508 145.668 500.8 145.668 500.8 L 146.368 500.8 C 146.368 472.2 169.568 441.1 198.168 441.1 L 789.368 441.1 C 814.768 441.1 835.868 467.3 840.268 491.5 C 840.268 491.5 840.268 491.5 840.268 491.5 C 848.268 491.8 856.068 492.6 863.868 493.9 C 864.368 494 864.968 494.1 865.468 494.2 C 880.468 496.8 894.668 501.2 907.768 507.3 C 908.568 507.7 909.468 508.1 910.268 508.5 C 916.468 511.5 922.468 514.8 928.168 518.6 C 928.268 518.7 928.368 518.7 928.468 518.8 C 934.068 522.5 939.268 526.8 944.168 531.2 C 945.168 532.1 946.068 533 946.968 533.9 C 951.468 538.3 955.768 542.9 959.668 547.9 C 959.868 548.1 959.968 548.2 960.168 548.5 C 964.068 553.6 967.368 559 970.368 564.7 C 971.068 566 971.768 567.4 972.468 568.8 C 975.268 574.6 977.768 580.6 979.668 586.9 C 1001.468 661.7 945.968 743.7 855.768 770.1 Z M 310.168 500.9 L 223.568 500.9 C 223.568 500.9 212.368 772 377.268 858.6 C 248.768 607.1 310.168 500.9 310.168 500.9 Z M 916.768 605.4 C 907.368 573.1 876.768 552 840.268 547.7 C 838.168 589.2 826.068 653.3 787.868 721.4 C 790.768 721.9 793.568 722.4 796.568 722.6 C 797.768 722.7 798.968 722.9 800.268 723 C 805.868 723.2 811.668 723 817.368 722.4 C 818.968 722.2 820.568 722 822.168 721.8 C 828.268 721 834.368 719.8 840.468 718.1 C 896.168 701.8 930.268 651.4 916.768 605.4 Z M 543.968 410.1 C 654.568 261.4 543.968 224.3 518.068 198.4 C 492.068 172.5 467.868 30.7 594.068 10 C 452.268 155.2 818.768 223.4 543.968 410.1 Z M 411.068 410.1 C 501.668 288.3 411.068 259.4 389.868 238.1 C 368.668 216.9 348.868 100.8 452.168 83.8 C 335.968 202.8 636.168 257.2 411.068 410.1 Z M 846.468 990 C 789.468 990 191.268 990 120.468 990 C 49.568 990 59.868 931.7 59.868 931.7 L 899.968 931.7 C 900.068 931.7 903.468 990 846.468 990 Z"/>
  </g>
  <g style="" transform="matrix(0.067657, 0, 0, 0.067657, 929.085144, 777.556519)">
    <path d="M 855.768 770.1 C 848.268 772.3 840.768 773.9 833.368 775.2 C 831.568 775.5 829.668 775.8 827.868 776.1 C 820.568 777.2 813.268 778 806.068 778.2 C 805.968 778.2 805.968 778.2 805.868 778.2 C 798.368 778.4 791.068 778.2 783.868 777.6 C 782.368 777.5 780.868 777.3 779.368 777.2 C 772.268 776.5 765.268 775.4 758.468 773.9 C 731.568 813 696.268 868.5 649.368 909.6 C 637.968 909.6 354.868 909.6 341.668 909.6 C 177.768 824.8 150.968 593.9 146.568 523.5 C 146.568 522.9 146.368 522.3 146.368 521.6 L 146.368 520.5 C 145.668 508 145.668 500.8 145.668 500.8 L 146.368 500.8 C 146.368 472.2 169.568 441.1 198.168 441.1 L 789.368 441.1 C 814.768 441.1 835.868 467.3 840.268 491.5 C 840.268 491.5 840.268 491.5 840.268 491.5 C 848.268 491.8 856.068 492.6 863.868 493.9 C 864.368 494 864.968 494.1 865.468 494.2 C 880.468 496.8 894.668 501.2 907.768 507.3 C 908.568 507.7 909.468 508.1 910.268 508.5 C 916.468 511.5 922.468 514.8 928.168 518.6 C 928.268 518.7 928.368 518.7 928.468 518.8 C 934.068 522.5 939.268 526.8 944.168 531.2 C 945.168 532.1 946.068 533 946.968 533.9 C 951.468 538.3 955.768 542.9 959.668 547.9 C 959.868 548.1 959.968 548.2 960.168 548.5 C 964.068 553.6 967.368 559 970.368 564.7 C 971.068 566 971.768 567.4 972.468 568.8 C 975.268 574.6 977.768 580.6 979.668 586.9 C 1001.468 661.7 945.968 743.7 855.768 770.1 Z M 310.168 500.9 L 223.568 500.9 C 223.568 500.9 212.368 772 377.268 858.6 C 248.768 607.1 310.168 500.9 310.168 500.9 Z M 916.768 605.4 C 907.368 573.1 876.768 552 840.268 547.7 C 838.168 589.2 826.068 653.3 787.868 721.4 C 790.768 721.9 793.568 722.4 796.568 722.6 C 797.768 722.7 798.968 722.9 800.268 723 C 805.868 723.2 811.668 723 817.368 722.4 C 818.968 722.2 820.568 722 822.168 721.8 C 828.268 721 834.368 719.8 840.468 718.1 C 896.168 701.8 930.268 651.4 916.768 605.4 Z M 543.968 410.1 C 654.568 261.4 543.968 224.3 518.068 198.4 C 492.068 172.5 467.868 30.7 594.068 10 C 452.268 155.2 818.768 223.4 543.968 410.1 Z M 411.068 410.1 C 501.668 288.3 411.068 259.4 389.868 238.1 C 368.668 216.9 348.868 100.8 452.168 83.8 C 335.968 202.8 636.168 257.2 411.068 410.1 Z M 846.468 990 C 789.468 990 191.268 990 120.468 990 C 49.568 990 59.868 931.7 59.868 931.7 L 899.968 931.7 C 900.068 931.7 903.468 990 846.468 990 Z"/>
  </g>
  <g style="" transform="matrix(0.067657, 0, 0, 0.067657, 929.085144, 854.868774)">
    <path d="M 855.768 770.1 C 848.268 772.3 840.768 773.9 833.368 775.2 C 831.568 775.5 829.668 775.8 827.868 776.1 C 820.568 777.2 813.268 778 806.068 778.2 C 805.968 778.2 805.968 778.2 805.868 778.2 C 798.368 778.4 791.068 778.2 783.868 777.6 C 782.368 777.5 780.868 777.3 779.368 777.2 C 772.268 776.5 765.268 775.4 758.468 773.9 C 731.568 813 696.268 868.5 649.368 909.6 C 637.968 909.6 354.868 909.6 341.668 909.6 C 177.768 824.8 150.968 593.9 146.568 523.5 C 146.568 522.9 146.368 522.3 146.368 521.6 L 146.368 520.5 C 145.668 508 145.668 500.8 145.668 500.8 L 146.368 500.8 C 146.368 472.2 169.568 441.1 198.168 441.1 L 789.368 441.1 C 814.768 441.1 835.868 467.3 840.268 491.5 C 840.268 491.5 840.268 491.5 840.268 491.5 C 848.268 491.8 856.068 492.6 863.868 493.9 C 864.368 494 864.968 494.1 865.468 494.2 C 880.468 496.8 894.668 501.2 907.768 507.3 C 908.568 507.7 909.468 508.1 910.268 508.5 C 916.468 511.5 922.468 514.8 928.168 518.6 C 928.268 518.7 928.368 518.7 928.468 518.8 C 934.068 522.5 939.268 526.8 944.168 531.2 C 945.168 532.1 946.068 533 946.968 533.9 C 951.468 538.3 955.768 542.9 959.668 547.9 C 959.868 548.1 959.968 548.2 960.168 548.5 C 964.068 553.6 967.368 559 970.368 564.7 C 971.068 566 971.768 567.4 972.468 568.8 C 975.268 574.6 977.768 580.6 979.668 586.9 C 1001.468 661.7 945.968 743.7 855.768 770.1 Z M 310.168 500.9 L 223.568 500.9 C 223.568 500.9 212.368 772 377.268 858.6 C 248.768 607.1 310.168 500.9 310.168 500.9 Z M 916.768 605.4 C 907.368 573.1 876.768 552 840.268 547.7 C 838.168 589.2 826.068 653.3 787.868 721.4 C 790.768 721.9 793.568 722.4 796.568 722.6 C 797.768 722.7 798.968 722.9 800.268 723 C 805.868 723.2 811.668 723 817.368 722.4 C 818.968 722.2 820.568 722 822.168 721.8 C 828.268 721 834.368 719.8 840.468 718.1 C 896.168 701.8 930.268 651.4 916.768 605.4 Z M 543.968 410.1 C 654.568 261.4 543.968 224.3 518.068 198.4 C 492.068 172.5 467.868 30.7 594.068 10 C 452.268 155.2 818.768 223.4 543.968 410.1 Z M 411.068 410.1 C 501.668 288.3 411.068 259.4 389.868 238.1 C 368.668 216.9 348.868 100.8 452.168 83.8 C 335.968 202.8 636.168 257.2 411.068 410.1 Z M 846.468 990 C 789.468 990 191.268 990 120.468 990 C 49.568 990 59.868 931.7 59.868 931.7 L 899.968 931.7 C 900.068 931.7 903.468 990 846.468 990 Z"/>
  </g>
</svg>