<?xml version="1.0" encoding="utf-8"?>
<!DOCTYPE svg PUBLIC "-//W3C//DTD SVG 1.1//EN" "http://www.w3.org/Graphics/SVG/1.1/DTD/svg11.dtd">
<svg version="1.1" xmlns="http://www.w3.org/2000/svg" xmlns:xlink="http://www.w3.org/1999/xlink" x="0px" y="0px" viewBox="0 0 1000 1000" enable-background="new 0 0 1000 1000" xml:space="preserve">
<g fill='#ffffff'><path d="M833.9,770.1c-7.5,2.2-15,3.8-22.4,5.1c-1.8,0.3-3.7,0.6-5.5,0.9c-7.3,1.1-14.6,1.9-21.8,2.1c-0.1,0-0.1,0-0.2,0c-7.5,0.2-14.8,0-22-0.6c-1.5-0.1-3-0.3-4.5-0.4c-7.1-0.7-14.1-1.8-20.9-3.3c-26.9,39.1-62.2,94.6-109.1,135.7c-11.4,0-294.5,0-307.7,0c-163.9-84.8-190.7-315.7-195.1-386.1c0-0.6-0.2-1.2-0.2-1.9v-1.1c-0.7-12.5-0.7-19.7-0.7-19.7h0.7c0-28.6,23.2-59.7,51.8-59.7h591.2c25.4,0,46.5,26.2,50.9,50.4c0,0,0,0,0,0c8,0.3,15.8,1.1,23.6,2.4c0.5,0.1,1.1,0.2,1.6,0.3c15,2.6,29.2,7,42.3,13.1c0.8,0.4,1.7,0.8,2.5,1.2c6.2,3,12.2,6.3,17.9,10.1c0.1,0.1,0.2,0.1,0.3,0.2c5.6,3.7,10.8,8,15.7,12.4c1,0.9,1.9,1.8,2.8,2.7c4.5,4.4,8.8,9,12.7,14c0.2,0.2,0.3,0.3,0.5,0.6c3.9,5.1,7.2,10.5,10.2,16.2c0.7,1.3,1.4,2.7,2.1,4.1c2.8,5.8,5.3,11.8,7.2,18.1C979.6,661.7,924.1,743.7,833.9,770.1z M288.3,500.9h-86.6c0,0-11.2,271.1,153.7,357.7C226.9,607.1,288.3,500.9,288.3,500.9z M894.9,605.4c-9.4-32.3-40-53.4-76.5-57.7c-2.1,41.5-14.2,105.6-52.4,173.7c2.9,0.5,5.7,1,8.7,1.2c1.2,0.1,2.4,0.3,3.7,0.4c5.6,0.2,11.4,0,17.1-0.6c1.6-0.2,3.2-0.4,4.8-0.6c6.1-0.8,12.2-2,18.3-3.7C874.3,701.8,908.4,651.4,894.9,605.4z M522.1,410.1c110.6-148.7,0-185.8-25.9-211.7C470.2,172.5,446,30.7,572.2,10C430.4,155.2,796.9,223.4,522.1,410.1z M389.2,410.1c90.6-121.8,0-150.7-21.2-172c-21.2-21.2-41-137.3,62.3-154.3C314.1,202.8,614.3,257.2,389.2,410.1z M824.6,990c-57,0-655.2,0-726,0C27.7,990,38,931.7,38,931.7h840.1C878.2,931.7,881.6,990,824.6,990z"/>
</g>
</svg>